{
	"asset":{
		"generator":"Khronos glTF Blender I/O v4.4.56",
		"version":"2.0"
	},
	"scene":0,
	"scenes":[
		{
			"name":"Scene",
			"nodes":[
				5,
				36,
				57
			]
		}
	],
	"nodes":[
		{
			"mesh":0,
			"name":"gorra.002__0.002"
		},
		{
			"children":[
				0
			],
			"name":"gorra.002",
			"rotation":[
				-0.70710688829422,
				0,
				0,
				0.7071066498756409
			],
			"scale":[
				195.2516326904297,
				195.25161743164062,
				222.4415283203125
			],
			"translation":[
				0.19092369079589844,
				193.37060546875,
				6.36676025390625
			]
		},
		{
			"children":[
				1
			],
			"name":"RootNode.003",
			"translation":[
				0,
				0.0001220703125,
				7.62939453125e-06
			]
		},
		{
			"children":[
				2
			],
			"name":"Object_2.002",
			"translation":[
				0,
				0.0001220703125,
				7.62939453125e-06
			]
		},
		{
			"children":[
				3
			],
			"name":"8b9c5156b1a6402f81c3e1c47b097b04.fbx.002",
			"rotation":[
				0.70710688829422,
				0,
				0,
				0.7071066498756409
			],
			"translation":[
				0,
				6.900954758748412e-06,
				0.0002683076891116798
			]
		},
		{
			"children":[
				4
			],
			"name":"Sketchfab_model.001",
			"rotation":[
				-0.70710688829422,
				0,
				0,
				0.7071066498756409
			],
			"scale":[
				0.001055329106748104,
				0.001055329106748104,
				0.001055329106748104
			],
			"translation":[
				-0.015803411602973938,
				1.5706034898757935,
				-0.08418718725442886
			]
		},
		{
			"mesh":1,
			"name":"Pattern2D_1249553_Zipper_FRONT_72827_0.002"
		},
		{
			"children":[
				6
			],
			"name":"Pattern2D_1249553.002",
			"scale":[
				10,
				10,
				10
			]
		},
		{
			"mesh":2,
			"name":"Pattern2D_1249554_Zipper_FRONT_72827_0.002"
		},
		{
			"children":[
				8
			],
			"name":"Pattern2D_1249554.002",
			"scale":[
				10,
				10,
				10
			]
		},
		{
			"mesh":3,
			"name":"Pattern2D_1434309_Pocket_FRONT_72843_0.002"
		},
		{
			"children":[
				10
			],
			"name":"Pattern2D_1434309.002",
			"scale":[
				10,
				10,
				10
			]
		},
		{
			"mesh":4,
			"name":"Pattern2D_1438298_Front/Back_FRONT_72833_0.002"
		},
		{
			"children":[
				12
			],
			"name":"Pattern2D_1438298.002",
			"scale":[
				10,
				10,
				10
			]
		},
		{
			"mesh":5,
			"name":"Pattern2D_1439306_Front/Back_FRONT_72833_0.002"
		},
		{
			"children":[
				14
			],
			"name":"Pattern2D_1439306.002",
			"scale":[
				10,
				10,
				10
			]
		},
		{
			"mesh":6,
			"name":"Pattern2D_1439307_Pocket_FRONT_72843_0.002"
		},
		{
			"children":[
				16
			],
			"name":"Pattern2D_1439307.002",
			"scale":[
				10,
				10,
				10
			]
		},
		{
			"mesh":7,
			"name":"Pattern2D_1506279_Pocket_FRONT_72843_0.002"
		},
		{
			"children":[
				18
			],
			"name":"Pattern2D_1506279.002",
			"scale":[
				10,
				10,
				10
			]
		},
		{
			"mesh":8,
			"name":"Pattern2D_1506290_Pocket_FRONT_72843_0.002"
		},
		{
			"children":[
				20
			],
			"name":"Pattern2D_1506290.002",
			"scale":[
				10,
				10,
				10
			]
		},
		{
			"mesh":9,
			"name":"Pattern2D_1506376_Pocket_FRONT_72843_0.001"
		},
		{
			"children":[
				22
			],
			"name":"Pattern2D_1506376.001",
			"scale":[
				10,
				10,
				10
			]
		},
		{
			"mesh":10,
			"name":"Pattern2D_1506376_Pocket_FRONT_72843_0.004"
		},
		{
			"children":[
				24
			],
			"name":"Pattern2D_1506376.004",
			"scale":[
				10,
				10,
				10
			]
		},
		{
			"mesh":11,
			"name":"Pattern2D_762026_Front/Back_FRONT_72833_0.002"
		},
		{
			"children":[
				26
			],
			"name":"Pattern2D_762026.002",
			"scale":[
				10,
				10,
				10
			]
		},
		{
			"mesh":12,
			"name":"Pattern2D_762798_Front/Back_FRONT_72833_0.002"
		},
		{
			"children":[
				28
			],
			"name":"Pattern2D_762798.002",
			"scale":[
				10,
				10,
				10
			]
		},
		{
			"mesh":13,
			"name":"Pattern2D_787193_Waist Belt_FRONT_72838_0.002"
		},
		{
			"children":[
				30
			],
			"name":"Pattern2D_787193.002",
			"scale":[
				10,
				10,
				10
			]
		},
		{
			"mesh":14,
			"name":"Pattern2D_787876_Waist Belt_FRONT_72838_0.002"
		},
		{
			"children":[
				32
			],
			"name":"Pattern2D_787876.002",
			"scale":[
				10,
				10,
				10
			]
		},
		{
			"children":[
				7,
				9,
				11,
				13,
				15,
				17,
				19,
				21,
				23,
				25,
				27,
				29,
				31,
				33
			],
			"name":"RootNode.004"
		},
		{
			"children":[
				34
			],
			"name":"a49956f22d8249edac2f1b3f31af4f82.fbx.002",
			"rotation":[
				0.70710688829422,
				0,
				0,
				0.7071066498756409
			]
		},
		{
			"children":[
				35
			],
			"name":"Sketchfab_model.004",
			"rotation":[
				-0.7071070075035095,
				0,
				0,
				0.7071065902709961
			],
			"scale":[
				0.0008723798091523349,
				0.0008723795181140304,
				0.0008723795181140304
			]
		},
		{
			"mesh":15,
			"name":"Object_14.001"
		},
		{
			"mesh":16,
			"name":"Object_15.001"
		},
		{
			"mesh":17,
			"name":"Object_16.001"
		},
		{
			"children":[
				37,
				38,
				39
			],
			"name":"Body_Back_Node_5.001"
		},
		{
			"mesh":18,
			"name":"Object_10.001"
		},
		{
			"mesh":19,
			"name":"Object_11.001"
		},
		{
			"mesh":20,
			"name":"Object_12.001"
		},
		{
			"children":[
				41,
				42,
				43
			],
			"name":"Body_Front_Node_4.001"
		},
		{
			"mesh":21,
			"name":"Object_6.001"
		},
		{
			"children":[
				45
			],
			"name":"Ribbing_Node_2.001"
		},
		{
			"mesh":22,
			"name":"Object_8.001"
		},
		{
			"children":[
				47
			],
			"name":"Ribbing_Node_3.001"
		},
		{
			"mesh":23,
			"name":"Object_18.001"
		},
		{
			"children":[
				49
			],
			"name":"Sleeves_Node_6.001"
		},
		{
			"mesh":24,
			"name":"Object_20.001"
		},
		{
			"children":[
				51
			],
			"name":"Sleeves_Node_7.001"
		},
		{
			"children":[
				40,
				44,
				46,
				48,
				50,
				52
			],
			"name":"Cloth_1.001"
		},
		{
			"children":[
				53
			],
			"name":"T_shirt_gltf.zip_Scene_Node_0.001"
		},
		{
			"children":[
				54
			],
			"name":"GLTF_SceneRootNode.001",
			"rotation":[
				0.70710688829422,
				0,
				0,
				0.7071066498756409
			]
		},
		{
			"children":[
				55
			],
			"name":"root.001"
		},
		{
			"children":[
				56
			],
			"name":"Sketchfab_model.005",
			"rotation":[
				-0.70710688829422,
				0,
				0,
				0.7071066498756409
			]
		}
	],
	"materials":[
		{
			"doubleSided":true,
			"name":"Scene_-_Root.002",
			"pbrMetallicRoughness":{
				"metallicFactor":0,
				"roughnessFactor":0.6000000238418579
			}
		},
		{
			"doubleSided":true,
			"name":"Zipper_FRONT_72827.002",
			"pbrMetallicRoughness":{
				"metallicFactor":0,
				"roughnessFactor":0.9826311469078064
			}
		},
		{
			"doubleSided":true,
			"name":"Zipper_FRONT_72827_0.002",
			"pbrMetallicRoughness":{
				"metallicFactor":0,
				"roughnessFactor":0.9826311469078064
			}
		},
		{
			"doubleSided":true,
			"name":"Pocket_FRONT_72843.002",
			"pbrMetallicRoughness":{
				"metallicFactor":0,
				"roughnessFactor":0.9826311469078064
			}
		},
		{
			"doubleSided":true,
			"name":"FrontBack_FRONT_72833_1.002",
			"pbrMetallicRoughness":{
				"metallicFactor":0,
				"roughnessFactor":0.9826311469078064
			}
		},
		{
			"doubleSided":true,
			"name":"FrontBack_FRONT_72833_2.002",
			"pbrMetallicRoughness":{
				"metallicFactor":0,
				"roughnessFactor":0.9826311469078064
			}
		},
		{
			"doubleSided":true,
			"name":"Pocket_FRONT_72843_0.002",
			"pbrMetallicRoughness":{
				"metallicFactor":0,
				"roughnessFactor":0.9826311469078064
			}
		},
		{
			"doubleSided":true,
			"name":"Pocket_FRONT_72843_1.002",
			"pbrMetallicRoughness":{
				"metallicFactor":0,
				"roughnessFactor":0.9826311469078064
			}
		},
		{
			"doubleSided":true,
			"name":"Pocket_FRONT_72843_2.002",
			"pbrMetallicRoughness":{
				"metallicFactor":0,
				"roughnessFactor":0.9826311469078064
			}
		},
		{
			"doubleSided":true,
			"name":"Pocket_FRONT_72843_3.002",
			"pbrMetallicRoughness":{
				"metallicFactor":0,
				"roughnessFactor":0.9826311469078064
			}
		},
		{
			"doubleSided":true,
			"name":"Pocket_FRONT_72843_4.002",
			"pbrMetallicRoughness":{
				"metallicFactor":0,
				"roughnessFactor":0.9826311469078064
			}
		},
		{
			"doubleSided":true,
			"name":"FrontBack_FRONT_72833.002",
			"pbrMetallicRoughness":{
				"metallicFactor":0,
				"roughnessFactor":0.9826311469078064
			}
		},
		{
			"doubleSided":true,
			"name":"FrontBack_FRONT_72833_0.002",
			"pbrMetallicRoughness":{
				"metallicFactor":0,
				"roughnessFactor":0.9826311469078064
			}
		},
		{
			"doubleSided":true,
			"name":"Waist_Belt_FRONT_72838.002",
			"pbrMetallicRoughness":{
				"metallicFactor":0,
				"roughnessFactor":0.9826311469078064
			}
		},
		{
			"doubleSided":true,
			"name":"Waist_Belt_FRONT_72838_0.002",
			"pbrMetallicRoughness":{
				"metallicFactor":0,
				"roughnessFactor":0.9826311469078064
			}
		},
		{
			"name":"Body_FRONT_2664.001",
			"pbrMetallicRoughness":{
				"metallicFactor":0,
				"roughnessFactor":0.5
			}
		},
		{
			"name":"Sleeves_FRONT_2669.001",
			"pbrMetallicRoughness":{
				"metallicFactor":0,
				"roughnessFactor":0.5
			}
		}
	],
	"meshes":[
		{
			"name":"gorra.002__0.002",
			"primitives":[
				{
					"attributes":{
						"POSITION":0,
						"NORMAL":1,
						"TEXCOORD_0":2
					},
					"indices":3,
					"material":0
				}
			]
		},
		{
			"name":"Pattern2D_1249553_Zipper_FRONT_72827_0.002",
			"primitives":[
				{
					"attributes":{
						"POSITION":4,
						"NORMAL":5,
						"TEXCOORD_0":6,
						"TEXCOORD_1":7
					},
					"indices":8,
					"material":1
				}
			]
		},
		{
			"name":"Pattern2D_1249554_Zipper_FRONT_72827_0.002",
			"primitives":[
				{
					"attributes":{
						"POSITION":9,
						"NORMAL":10,
						"TEXCOORD_0":11,
						"TEXCOORD_1":12
					},
					"indices":13,
					"material":2
				}
			]
		},
		{
			"name":"Pattern2D_1434309_Pocket_FRONT_72843_0.002",
			"primitives":[
				{
					"attributes":{
						"POSITION":14,
						"NORMAL":15,
						"TEXCOORD_0":16,
						"TEXCOORD_1":17
					},
					"indices":18,
					"material":3
				}
			]
		},
		{
			"name":"Pattern2D_1438298_Front/Back_FRONT_72833_0.002",
			"primitives":[
				{
					"attributes":{
						"POSITION":19,
						"NORMAL":20,
						"TEXCOORD_0":21,
						"TEXCOORD_1":22
					},
					"indices":23,
					"material":4
				}
			]
		},
		{
			"name":"Pattern2D_1439306_Front/Back_FRONT_72833_0.002",
			"primitives":[
				{
					"attributes":{
						"POSITION":24,
						"NORMAL":25,
						"TEXCOORD_0":26,
						"TEXCOORD_1":27
					},
					"indices":28,
					"material":5
				}
			]
		},
		{
			"name":"Pattern2D_1439307_Pocket_FRONT_72843_0.002",
			"primitives":[
				{
					"attributes":{
						"POSITION":29,
						"NORMAL":30,
						"TEXCOORD_0":31,
						"TEXCOORD_1":32
					},
					"indices":33,
					"material":6
				}
			]
		},
		{
			"name":"Pattern2D_1506279_Pocket_FRONT_72843_0.002",
			"primitives":[
				{
					"attributes":{
						"POSITION":34,
						"NORMAL":35,
						"TEXCOORD_0":36,
						"TEXCOORD_1":37
					},
					"indices":38,
					"material":7
				}
			]
		},
		{
			"name":"Pattern2D_1506290_Pocket_FRONT_72843_0.002",
			"primitives":[
				{
					"attributes":{
						"POSITION":39,
						"NORMAL":40,
						"TEXCOORD_0":41,
						"TEXCOORD_1":42
					},
					"indices":43,
					"material":8
				}
			]
		},
		{
			"name":"Pattern2D_1506376_Pocket_FRONT_72843_0.001",
			"primitives":[
				{
					"attributes":{
						"POSITION":44,
						"NORMAL":45,
						"TEXCOORD_0":46,
						"TEXCOORD_1":47
					},
					"indices":38,
					"material":9
				}
			]
		},
		{
			"name":"Pattern2D_1506376_Pocket_FRONT_72843_0.004",
			"primitives":[
				{
					"attributes":{
						"POSITION":48,
						"NORMAL":49,
						"TEXCOORD_0":50,
						"TEXCOORD_1":51
					},
					"indices":43,
					"material":10
				}
			]
		},
		{
			"name":"Pattern2D_762026_Front/Back_FRONT_72833_0.002",
			"primitives":[
				{
					"attributes":{
						"POSITION":52,
						"NORMAL":53,
						"TEXCOORD_0":54,
						"TEXCOORD_1":55
					},
					"indices":56,
					"material":11
				}
			]
		},
		{
			"name":"Pattern2D_762798_Front/Back_FRONT_72833_0.002",
			"primitives":[
				{
					"attributes":{
						"POSITION":57,
						"NORMAL":58,
						"TEXCOORD_0":59,
						"TEXCOORD_1":60
					},
					"indices":61,
					"material":12
				}
			]
		},
		{
			"name":"Pattern2D_787193_Waist Belt_FRONT_72838_0.002",
			"primitives":[
				{
					"attributes":{
						"POSITION":62,
						"NORMAL":63,
						"TEXCOORD_0":64,
						"TEXCOORD_1":65
					},
					"indices":66,
					"material":13
				}
			]
		},
		{
			"name":"Pattern2D_787876_Waist Belt_FRONT_72838_0.002",
			"primitives":[
				{
					"attributes":{
						"POSITION":67,
						"NORMAL":68,
						"TEXCOORD_0":69,
						"TEXCOORD_1":70
					},
					"indices":71,
					"material":14
				}
			]
		},
		{
			"name":"Object_5.001",
			"primitives":[
				{
					"attributes":{
						"POSITION":72,
						"NORMAL":73,
						"TEXCOORD_0":74
					},
					"indices":75,
					"material":15
				}
			]
		},
		{
			"name":"Object_6.001",
			"primitives":[
				{
					"attributes":{
						"POSITION":76,
						"NORMAL":77,
						"TEXCOORD_0":78
					},
					"indices":79,
					"material":15
				}
			]
		},
		{
			"name":"Object_7.001",
			"primitives":[
				{
					"attributes":{
						"POSITION":80,
						"NORMAL":81,
						"TEXCOORD_0":82
					},
					"indices":83,
					"material":15
				}
			]
		},
		{
			"name":"Object_2.001",
			"primitives":[
				{
					"attributes":{
						"POSITION":84,
						"NORMAL":85,
						"TEXCOORD_0":86
					},
					"indices":87,
					"material":15
				}
			]
		},
		{
			"name":"Object_3.001",
			"primitives":[
				{
					"attributes":{
						"POSITION":88,
						"NORMAL":89,
						"TEXCOORD_0":90
					},
					"indices":91,
					"material":15
				}
			]
		},
		{
			"name":"Object_4.001",
			"primitives":[
				{
					"attributes":{
						"POSITION":92,
						"NORMAL":93,
						"TEXCOORD_0":94
					},
					"indices":95,
					"material":15
				}
			]
		},
		{
			"name":"Object_0.001",
			"primitives":[
				{
					"attributes":{
						"POSITION":96,
						"NORMAL":97,
						"TEXCOORD_0":98
					},
					"indices":99,
					"material":15
				}
			]
		},
		{
			"name":"Object_1.001",
			"primitives":[
				{
					"attributes":{
						"POSITION":100,
						"NORMAL":101,
						"TEXCOORD_0":102
					},
					"indices":103,
					"material":15
				}
			]
		},
		{
			"name":"Object_8.001",
			"primitives":[
				{
					"attributes":{
						"POSITION":104,
						"NORMAL":105,
						"TEXCOORD_0":106
					},
					"indices":107,
					"material":16
				}
			]
		},
		{
			"name":"Object_9.001",
			"primitives":[
				{
					"attributes":{
						"POSITION":108,
						"NORMAL":109,
						"TEXCOORD_0":110
					},
					"indices":111,
					"material":16
				}
			]
		}
	],
	"accessors":[
		{
			"bufferView":0,
			"componentType":5126,
			"count":63566,
			"max":[
				0.9714441895484924,
				1.1251803636550903,
				0.4405687749385834
			],
			"min":[
				-0.9715989828109741,
				-1.5356779098510742,
				-0.7322534918785095
			],
			"type":"VEC3"
		},
		{
			"bufferView":1,
			"componentType":5126,
			"count":63566,
			"type":"VEC3"
		},
		{
			"bufferView":2,
			"componentType":5126,
			"count":63566,
			"type":"VEC2"
		},
		{
			"bufferView":3,
			"componentType":5123,
			"count":279600,
			"type":"SCALAR"
		},
		{
			"bufferView":4,
			"componentType":5126,
			"count":119,
			"max":[
				4.444186687469482,
				109.97834777832031,
				12.401683807373047
			],
			"min":[
				0.03802797943353653,
				96.15299987792969,
				9.943655967712402
			],
			"type":"VEC3"
		},
		{
			"bufferView":5,
			"componentType":5126,
			"count":119,
			"type":"VEC3"
		},
		{
			"bufferView":6,
			"componentType":5126,
			"count":119,
			"type":"VEC2"
		},
		{
			"bufferView":7,
			"componentType":5126,
			"count":119,
			"type":"VEC2"
		},
		{
			"bufferView":8,
			"componentType":5123,
			"count":591,
			"type":"SCALAR"
		},
		{
			"bufferView":9,
			"componentType":5126,
			"count":119,
			"max":[
				4.37634801864624,
				109.97834777832031,
				12.21472454071045
			],
			"min":[
				-0.016679702326655388,
				96.15299987792969,
				9.734210968017578
			],
			"type":"VEC3"
		},
		{
			"bufferView":10,
			"componentType":5126,
			"count":119,
			"type":"VEC3"
		},
		{
			"bufferView":11,
			"componentType":5126,
			"count":119,
			"type":"VEC2"
		},
		{
			"bufferView":12,
			"componentType":5126,
			"count":119,
			"type":"VEC2"
		},
		{
			"bufferView":13,
			"componentType":5123,
			"count":591,
			"type":"SCALAR"
		},
		{
			"bufferView":14,
			"componentType":5126,
			"count":158,
			"max":[
				18.65559959411621,
				111.85176849365234,
				11.29124641418457
			],
			"min":[
				8.138638496398926,
				89.80416870117188,
				0.8552221655845642
			],
			"type":"VEC3"
		},
		{
			"bufferView":15,
			"componentType":5126,
			"count":158,
			"type":"VEC3"
		},
		{
			"bufferView":16,
			"componentType":5126,
			"count":158,
			"type":"VEC2"
		},
		{
			"bufferView":17,
			"componentType":5126,
			"count":158,
			"type":"VEC2"
		},
		{
			"bufferView":18,
			"componentType":5123,
			"count":807,
			"type":"SCALAR"
		},
		{
			"bufferView":19,
			"componentType":5126,
			"count":1088,
			"max":[
				23.44268035888672,
				111.54083251953125,
				12.401683807373047
			],
			"min":[
				0.03802797943353653,
				6.704442501068115,
				-2.1654653549194336
			],
			"type":"VEC3"
		},
		{
			"bufferView":20,
			"componentType":5126,
			"count":1088,
			"type":"VEC3"
		},
		{
			"bufferView":21,
			"componentType":5126,
			"count":1088,
			"type":"VEC2"
		},
		{
			"bufferView":22,
			"componentType":5126,
			"count":1088,
			"type":"VEC2"
		},
		{
			"bufferView":23,
			"componentType":5123,
			"count":6069,
			"type":"SCALAR"
		},
		{
			"bufferView":24,
			"componentType":5126,
			"count":1075,
			"max":[
				0.24965059757232666,
				111.76619720458984,
				12.21472454071045
			],
			"min":[
				-23.8216495513916,
				6.445730686187744,
				-1.954358458518982
			],
			"type":"VEC3"
		},
		{
			"bufferView":25,
			"componentType":5126,
			"count":1075,
			"type":"VEC3"
		},
		{
			"bufferView":26,
			"componentType":5126,
			"count":1075,
			"type":"VEC2"
		},
		{
			"bufferView":27,
			"componentType":5126,
			"count":1075,
			"type":"VEC2"
		},
		{
			"bufferView":28,
			"componentType":5123,
			"count":5994,
			"type":"SCALAR"
		},
		{
			"bufferView":29,
			"componentType":5126,
			"count":159,
			"max":[
				-7.9387125968933105,
				112.05323791503906,
				11.27605152130127
			],
			"min":[
				-18.630937576293945,
				90.00279235839844,
				1.113368272781372
			],
			"type":"VEC3"
		},
		{
			"bufferView":30,
			"componentType":5126,
			"count":159,
			"type":"VEC3"
		},
		{
			"bufferView":31,
			"componentType":5126,
			"count":159,
			"type":"VEC2"
		},
		{
			"bufferView":32,
			"componentType":5126,
			"count":159,
			"type":"VEC2"
		},
		{
			"bufferView":33,
			"componentType":5123,
			"count":813,
			"type":"SCALAR"
		},
		{
			"bufferView":34,
			"componentType":5126,
			"count":64,
			"max":[
				12.795851707458496,
				108.50435638427734,
				-6.233322620391846
			],
			"min":[
				4.188531398773193,
				107.26158905029297,
				-10.43903636932373
			],
			"type":"VEC3"
		},
		{
			"bufferView":35,
			"componentType":5126,
			"count":64,
			"type":"VEC3"
		},
		{
			"bufferView":36,
			"componentType":5126,
			"count":64,
			"type":"VEC2"
		},
		{
			"bufferView":37,
			"componentType":5126,
			"count":64,
			"type":"VEC2"
		},
		{
			"bufferView":38,
			"componentType":5123,
			"count":246,
			"type":"SCALAR"
		},
		{
			"bufferView":39,
			"componentType":5126,
			"count":64,
			"max":[
				12.795851707458496,
				108.117919921875,
				-6.287303924560547
			],
			"min":[
				4.28790283203125,
				106.78486633300781,
				-10.572699546813965
			],
			"type":"VEC3"
		},
		{
			"bufferView":40,
			"componentType":5126,
			"count":64,
			"type":"VEC3"
		},
		{
			"bufferView":41,
			"componentType":5126,
			"count":64,
			"type":"VEC2"
		},
		{
			"bufferView":42,
			"componentType":5126,
			"count":64,
			"type":"VEC2"
		},
		{
			"bufferView":43,
			"componentType":5123,
			"count":246,
			"type":"SCALAR"
		},
		{
			"bufferView":44,
			"componentType":5126,
			"count":64,
			"max":[
				-4.4608845710754395,
				108.2583236694336,
				-6.108287334442139
			],
			"min":[
				-12.954048156738281,
				106.91411590576172,
				-10.52982234954834
			],
			"type":"VEC3"
		},
		{
			"bufferView":45,
			"componentType":5126,
			"count":64,
			"type":"VEC3"
		},
		{
			"bufferView":46,
			"componentType":5126,
			"count":64,
			"type":"VEC2"
		},
		{
			"bufferView":47,
			"componentType":5126,
			"count":64,
			"type":"VEC2"
		},
		{
			"bufferView":48,
			"componentType":5126,
			"count":64,
			"max":[
				-4.35124397277832,
				108.70814514160156,
				-6.0534987449646
			],
			"min":[
				-12.954048156738281,
				107.38700103759766,
				-10.400358200073242
			],
			"type":"VEC3"
		},
		{
			"bufferView":49,
			"componentType":5126,
			"count":64,
			"type":"VEC3"
		},
		{
			"bufferView":50,
			"componentType":5126,
			"count":64,
			"type":"VEC2"
		},
		{
			"bufferView":51,
			"componentType":5126,
			"count":64,
			"type":"VEC2"
		},
		{
			"bufferView":52,
			"componentType":5126,
			"count":1335,
			"max":[
				0.10288646072149277,
				112.91230773925781,
				3.6962649822235107
			],
			"min":[
				-23.565502166748047,
				5.778775215148926,
				-11.576712608337402
			],
			"type":"VEC3"
		},
		{
			"bufferView":53,
			"componentType":5126,
			"count":1335,
			"type":"VEC3"
		},
		{
			"bufferView":54,
			"componentType":5126,
			"count":1335,
			"type":"VEC2"
		},
		{
			"bufferView":55,
			"componentType":5126,
			"count":1335,
			"type":"VEC2"
		},
		{
			"bufferView":56,
			"componentType":5123,
			"count":7503,
			"type":"SCALAR"
		},
		{
			"bufferView":57,
			"componentType":5126,
			"count":1334,
			"max":[
				23.284732818603516,
				112.73986053466797,
				3.2921109199523926
			],
			"min":[
				-0.2257390022277832,
				5.814512729644775,
				-11.585848808288574
			],
			"type":"VEC3"
		},
		{
			"bufferView":58,
			"componentType":5126,
			"count":1334,
			"type":"VEC3"
		},
		{
			"bufferView":59,
			"componentType":5126,
			"count":1334,
			"type":"VEC2"
		},
		{
			"bufferView":60,
			"componentType":5126,
			"count":1334,
			"type":"VEC2"
		},
		{
			"bufferView":61,
			"componentType":5123,
			"count":7497,
			"type":"SCALAR"
		},
		{
			"bufferView":62,
			"componentType":5126,
			"count":349,
			"max":[
				0.13894419372081757,
				116.9198989868164,
				13.01075267791748
			],
			"min":[
				-15.421401023864746,
				109.69062805175781,
				-8.6174955368042
			],
			"type":"VEC3"
		},
		{
			"bufferView":63,
			"componentType":5126,
			"count":349,
			"type":"VEC3"
		},
		{
			"bufferView":64,
			"componentType":5126,
			"count":349,
			"type":"VEC2"
		},
		{
			"bufferView":65,
			"componentType":5126,
			"count":349,
			"type":"VEC2"
		},
		{
			"bufferView":66,
			"componentType":5123,
			"count":1803,
			"type":"SCALAR"
		},
		{
			"bufferView":67,
			"componentType":5126,
			"count":358,
			"max":[
				15.462457656860352,
				116.7558822631836,
				13.01756477355957
			],
			"min":[
				-0.07050889730453491,
				109.69062805175781,
				-8.635168075561523
			],
			"type":"VEC3"
		},
		{
			"bufferView":68,
			"componentType":5126,
			"count":358,
			"type":"VEC3"
		},
		{
			"bufferView":69,
			"componentType":5126,
			"count":358,
			"type":"VEC2"
		},
		{
			"bufferView":70,
			"componentType":5126,
			"count":358,
			"type":"VEC2"
		},
		{
			"bufferView":71,
			"componentType":5123,
			"count":1854,
			"type":"SCALAR"
		},
		{
			"bufferView":72,
			"componentType":5126,
			"count":24268,
			"max":[
				0.2079797089099884,
				1.629104495048523,
				0.008685611188411713
			],
			"min":[
				-0.20775645971298218,
				0.9362870454788208,
				-0.14934851229190826
			],
			"type":"VEC3"
		},
		{
			"bufferView":73,
			"componentType":5126,
			"count":24268,
			"type":"VEC3"
		},
		{
			"bufferView":74,
			"componentType":5126,
			"count":24268,
			"type":"VEC2"
		},
		{
			"bufferView":75,
			"componentType":5123,
			"count":144126,
			"type":"SCALAR"
		},
		{
			"bufferView":76,
			"componentType":5126,
			"count":24268,
			"max":[
				0.2076701521873474,
				1.6286565065383911,
				0.0087042897939682
			],
			"min":[
				-0.20746342837810516,
				0.9363815188407898,
				-0.14884860813617706
			],
			"type":"VEC3"
		},
		{
			"bufferView":77,
			"componentType":5126,
			"count":24268,
			"type":"VEC3"
		},
		{
			"bufferView":78,
			"componentType":5126,
			"count":24268,
			"type":"VEC2"
		},
		{
			"bufferView":79,
			"componentType":5123,
			"count":144126,
			"type":"SCALAR"
		},
		{
			"bufferView":80,
			"componentType":5126,
			"count":3542,
			"max":[
				0.2079797089099884,
				1.629104495048523,
				0.0087042897939682
			],
			"min":[
				-0.20775645971298218,
				0.9362870454788208,
				-0.12620921432971954
			],
			"type":"VEC3"
		},
		{
			"bufferView":81,
			"componentType":5126,
			"count":3542,
			"type":"VEC3"
		},
		{
			"bufferView":82,
			"componentType":5126,
			"count":3542,
			"type":"VEC2"
		},
		{
			"bufferView":83,
			"componentType":5123,
			"count":17712,
			"type":"SCALAR"
		},
		{
			"bufferView":84,
			"componentType":5126,
			"count":22320,
			"max":[
				0.2065085917711258,
				1.6276650428771973,
				0.1597357988357544
			],
			"min":[
				-0.20776261389255524,
				0.9531669020652771,
				-0.04202919453382492
			],
			"type":"VEC3"
		},
		{
			"bufferView":85,
			"componentType":5126,
			"count":22320,
			"type":"VEC3"
		},
		{
			"bufferView":86,
			"componentType":5126,
			"count":22320,
			"type":"VEC2"
		},
		{
			"bufferView":87,
			"componentType":5123,
			"count":132402,
			"type":"SCALAR"
		},
		{
			"bufferView":88,
			"componentType":5126,
			"count":22320,
			"max":[
				0.20620815455913544,
				1.6272343397140503,
				0.15923799574375153
			],
			"min":[
				-0.2074778825044632,
				0.9531122446060181,
				-0.042154423892498016
			],
			"type":"VEC3"
		},
		{
			"bufferView":89,
			"componentType":5126,
			"count":22320,
			"type":"VEC3"
		},
		{
			"bufferView":90,
			"componentType":5126,
			"count":22320,
			"type":"VEC2"
		},
		{
			"bufferView":91,
			"componentType":5123,
			"count":132402,
			"type":"SCALAR"
		},
		{
			"bufferView":92,
			"componentType":5126,
			"count":3695,
			"max":[
				0.2065085917711258,
				1.6276650428771973,
				0.1597357988357544
			],
			"min":[
				-0.20776261389255524,
				0.9531122446060181,
				-0.042154423892498016
			],
			"type":"VEC3"
		},
		{
			"bufferView":93,
			"componentType":5126,
			"count":3695,
			"type":"VEC3"
		},
		{
			"bufferView":94,
			"componentType":5126,
			"count":3695,
			"type":"VEC2"
		},
		{
			"bufferView":95,
			"componentType":5123,
			"count":18144,
			"type":"SCALAR"
		},
		{
			"bufferView":96,
			"componentType":5126,
			"count":1231,
			"max":[
				0.08587206900119781,
				1.6379107236862183,
				-0.03707779943943024
			],
			"min":[
				-0.08669203519821167,
				1.6181021928787231,
				-0.0870811864733696
			],
			"type":"VEC3"
		},
		{
			"bufferView":97,
			"componentType":5126,
			"count":1231,
			"type":"VEC3"
		},
		{
			"bufferView":98,
			"componentType":5126,
			"count":1231,
			"type":"VEC2"
		},
		{
			"bufferView":99,
			"componentType":5123,
			"count":6036,
			"type":"SCALAR"
		},
		{
			"bufferView":100,
			"componentType":5126,
			"count":1682,
			"max":[
				0.08620669692754745,
				1.636293649673462,
				0.04639703407883644
			],
			"min":[
				-0.08711935579776764,
				1.5608046054840088,
				-0.042142901569604874
			],
			"type":"VEC3"
		},
		{
			"bufferView":101,
			"componentType":5126,
			"count":1682,
			"type":"VEC3"
		},
		{
			"bufferView":102,
			"componentType":5126,
			"count":1682,
			"type":"VEC2"
		},
		{
			"bufferView":103,
			"componentType":5123,
			"count":8322,
			"type":"SCALAR"
		},
		{
			"bufferView":104,
			"componentType":5126,
			"count":9679,
			"max":[
				0.3258504271507263,
				1.5755043029785156,
				0.043447691947221756
			],
			"min":[
				0.1786404252052307,
				1.3577498197555542,
				-0.11446479707956314
			],
			"type":"VEC3"
		},
		{
			"bufferView":105,
			"componentType":5126,
			"count":9679,
			"type":"VEC3"
		},
		{
			"bufferView":106,
			"componentType":5126,
			"count":9679,
			"type":"VEC2"
		},
		{
			"bufferView":107,
			"componentType":5123,
			"count":55404,
			"type":"SCALAR"
		},
		{
			"bufferView":108,
			"componentType":5126,
			"count":9635,
			"max":[
				-0.1801571100950241,
				1.5748897790908813,
				0.0432635173201561
			],
			"min":[
				-0.3271026909351349,
				1.3555173873901367,
				-0.11441069096326828
			],
			"type":"VEC3"
		},
		{
			"bufferView":109,
			"componentType":5126,
			"count":9635,
			"type":"VEC3"
		},
		{
			"bufferView":110,
			"componentType":5126,
			"count":9635,
			"type":"VEC2"
		},
		{
			"bufferView":111,
			"componentType":5123,
			"count":55140,
			"type":"SCALAR"
		}
	],
	"bufferViews":[
		{
			"buffer":0,
			"byteLength":762792,
			"byteOffset":0,
			"target":34962
		},
		{
			"buffer":0,
			"byteLength":762792,
			"byteOffset":762792,
			"target":34962
		},
		{
			"buffer":0,
			"byteLength":508528,
			"byteOffset":1525584,
			"target":34962
		},
		{
			"buffer":0,
			"byteLength":559200,
			"byteOffset":2034112,
			"target":34963
		},
		{
			"buffer":0,
			"byteLength":1428,
			"byteOffset":2593312,
			"target":34962
		},
		{
			"buffer":0,
			"byteLength":1428,
			"byteOffset":2594740,
			"target":34962
		},
		{
			"buffer":0,
			"byteLength":952,
			"byteOffset":2596168,
			"target":34962
		},
		{
			"buffer":0,
			"byteLength":952,
			"byteOffset":2597120,
			"target":34962
		},
		{
			"buffer":0,
			"byteLength":1182,
			"byteOffset":2598072,
			"target":34963
		},
		{
			"buffer":0,
			"byteLength":1428,
			"byteOffset":2599256,
			"target":34962
		},
		{
			"buffer":0,
			"byteLength":1428,
			"byteOffset":2600684,
			"target":34962
		},
		{
			"buffer":0,
			"byteLength":952,
			"byteOffset":2602112,
			"target":34962
		},
		{
			"buffer":0,
			"byteLength":952,
			"byteOffset":2603064,
			"target":34962
		},
		{
			"buffer":0,
			"byteLength":1182,
			"byteOffset":2604016,
			"target":34963
		},
		{
			"buffer":0,
			"byteLength":1896,
			"byteOffset":2605200,
			"target":34962
		},
		{
			"buffer":0,
			"byteLength":1896,
			"byteOffset":2607096,
			"target":34962
		},
		{
			"buffer":0,
			"byteLength":1264,
			"byteOffset":2608992,
			"target":34962
		},
		{
			"buffer":0,
			"byteLength":1264,
			"byteOffset":2610256,
			"target":34962
		},
		{
			"buffer":0,
			"byteLength":1614,
			"byteOffset":2611520,
			"target":34963
		},
		{
			"buffer":0,
			"byteLength":13056,
			"byteOffset":2613136,
			"target":34962
		},
		{
			"buffer":0,
			"byteLength":13056,
			"byteOffset":2626192,
			"target":34962
		},
		{
			"buffer":0,
			"byteLength":8704,
			"byteOffset":2639248,
			"target":34962
		},
		{
			"buffer":0,
			"byteLength":8704,
			"byteOffset":2647952,
			"target":34962
		},
		{
			"buffer":0,
			"byteLength":12138,
			"byteOffset":2656656,
			"target":34963
		},
		{
			"buffer":0,
			"byteLength":12900,
			"byteOffset":2668796,
			"target":34962
		},
		{
			"buffer":0,
			"byteLength":12900,
			"byteOffset":2681696,
			"target":34962
		},
		{
			"buffer":0,
			"byteLength":8600,
			"byteOffset":2694596,
			"target":34962
		},
		{
			"buffer":0,
			"byteLength":8600,
			"byteOffset":2703196,
			"target":34962
		},
		{
			"buffer":0,
			"byteLength":11988,
			"byteOffset":2711796,
			"target":34963
		},
		{
			"buffer":0,
			"byteLength":1908,
			"byteOffset":2723784,
			"target":34962
		},
		{
			"buffer":0,
			"byteLength":1908,
			"byteOffset":2725692,
			"target":34962
		},
		{
			"buffer":0,
			"byteLength":1272,
			"byteOffset":2727600,
			"target":34962
		},
		{
			"buffer":0,
			"byteLength":1272,
			"byteOffset":2728872,
			"target":34962
		},
		{
			"buffer":0,
			"byteLength":1626,
			"byteOffset":2730144,
			"target":34963
		},
		{
			"buffer":0,
			"byteLength":768,
			"byteOffset":2731772,
			"target":34962
		},
		{
			"buffer":0,
			"byteLength":768,
			"byteOffset":2732540,
			"target":34962
		},
		{
			"buffer":0,
			"byteLength":512,
			"byteOffset":2733308,
			"target":34962
		},
		{
			"buffer":0,
			"byteLength":512,
			"byteOffset":2733820,
			"target":34962
		},
		{
			"buffer":0,
			"byteLength":492,
			"byteOffset":2734332,
			"target":34963
		},
		{
			"buffer":0,
			"byteLength":768,
			"byteOffset":2734824,
			"target":34962
		},
		{
			"buffer":0,
			"byteLength":768,
			"byteOffset":2735592,
			"target":34962
		},
		{
			"buffer":0,
			"byteLength":512,
			"byteOffset":2736360,
			"target":34962
		},
		{
			"buffer":0,
			"byteLength":512,
			"byteOffset":2736872,
			"target":34962
		},
		{
			"buffer":0,
			"byteLength":492,
			"byteOffset":2737384,
			"target":34963
		},
		{
			"buffer":0,
			"byteLength":768,
			"byteOffset":2737876,
			"target":34962
		},
		{
			"buffer":0,
			"byteLength":768,
			"byteOffset":2738644,
			"target":34962
		},
		{
			"buffer":0,
			"byteLength":512,
			"byteOffset":2739412,
			"target":34962
		},
		{
			"buffer":0,
			"byteLength":512,
			"byteOffset":2739924,
			"target":34962
		},
		{
			"buffer":0,
			"byteLength":768,
			"byteOffset":2740436,
			"target":34962
		},
		{
			"buffer":0,
			"byteLength":768,
			"byteOffset":2741204,
			"target":34962
		},
		{
			"buffer":0,
			"byteLength":512,
			"byteOffset":2741972,
			"target":34962
		},
		{
			"buffer":0,
			"byteLength":512,
			"byteOffset":2742484,
			"target":34962
		},
		{
			"buffer":0,
			"byteLength":16020,
			"byteOffset":2742996,
			"target":34962
		},
		{
			"buffer":0,
			"byteLength":16020,
			"byteOffset":2759016,
			"target":34962
		},
		{
			"buffer":0,
			"byteLength":10680,
			"byteOffset":2775036,
			"target":34962
		},
		{
			"buffer":0,
			"byteLength":10680,
			"byteOffset":2785716,
			"target":34962
		},
		{
			"buffer":0,
			"byteLength":15006,
			"byteOffset":2796396,
			"target":34963
		},
		{
			"buffer":0,
			"byteLength":16008,
			"byteOffset":2811404,
			"target":34962
		},
		{
			"buffer":0,
			"byteLength":16008,
			"byteOffset":2827412,
			"target":34962
		},
		{
			"buffer":0,
			"byteLength":10672,
			"byteOffset":2843420,
			"target":34962
		},
		{
			"buffer":0,
			"byteLength":10672,
			"byteOffset":2854092,
			"target":34962
		},
		{
			"buffer":0,
			"byteLength":14994,
			"byteOffset":2864764,
			"target":34963
		},
		{
			"buffer":0,
			"byteLength":4188,
			"byteOffset":2879760,
			"target":34962
		},
		{
			"buffer":0,
			"byteLength":4188,
			"byteOffset":2883948,
			"target":34962
		},
		{
			"buffer":0,
			"byteLength":2792,
			"byteOffset":2888136,
			"target":34962
		},
		{
			"buffer":0,
			"byteLength":2792,
			"byteOffset":2890928,
			"target":34962
		},
		{
			"buffer":0,
			"byteLength":3606,
			"byteOffset":2893720,
			"target":34963
		},
		{
			"buffer":0,
			"byteLength":4296,
			"byteOffset":2897328,
			"target":34962
		},
		{
			"buffer":0,
			"byteLength":4296,
			"byteOffset":2901624,
			"target":34962
		},
		{
			"buffer":0,
			"byteLength":2864,
			"byteOffset":2905920,
			"target":34962
		},
		{
			"buffer":0,
			"byteLength":2864,
			"byteOffset":2908784,
			"target":34962
		},
		{
			"buffer":0,
			"byteLength":3708,
			"byteOffset":2911648,
			"target":34963
		},
		{
			"buffer":0,
			"byteLength":291216,
			"byteOffset":2915356,
			"target":34962
		},
		{
			"buffer":0,
			"byteLength":291216,
			"byteOffset":3206572,
			"target":34962
		},
		{
			"buffer":0,
			"byteLength":194144,
			"byteOffset":3497788,
			"target":34962
		},
		{
			"buffer":0,
			"byteLength":288252,
			"byteOffset":3691932,
			"target":34963
		},
		{
			"buffer":0,
			"byteLength":291216,
			"byteOffset":3980184,
			"target":34962
		},
		{
			"buffer":0,
			"byteLength":291216,
			"byteOffset":4271400,
			"target":34962
		},
		{
			"buffer":0,
			"byteLength":194144,
			"byteOffset":4562616,
			"target":34962
		},
		{
			"buffer":0,
			"byteLength":288252,
			"byteOffset":4756760,
			"target":34963
		},
		{
			"buffer":0,
			"byteLength":42504,
			"byteOffset":5045012,
			"target":34962
		},
		{
			"buffer":0,
			"byteLength":42504,
			"byteOffset":5087516,
			"target":34962
		},
		{
			"buffer":0,
			"byteLength":28336,
			"byteOffset":5130020,
			"target":34962
		},
		{
			"buffer":0,
			"byteLength":35424,
			"byteOffset":5158356,
			"target":34963
		},
		{
			"buffer":0,
			"byteLength":267840,
			"byteOffset":5193780,
			"target":34962
		},
		{
			"buffer":0,
			"byteLength":267840,
			"byteOffset":5461620,
			"target":34962
		},
		{
			"buffer":0,
			"byteLength":178560,
			"byteOffset":5729460,
			"target":34962
		},
		{
			"buffer":0,
			"byteLength":264804,
			"byteOffset":5908020,
			"target":34963
		},
		{
			"buffer":0,
			"byteLength":267840,
			"byteOffset":6172824,
			"target":34962
		},
		{
			"buffer":0,
			"byteLength":267840,
			"byteOffset":6440664,
			"target":34962
		},
		{
			"buffer":0,
			"byteLength":178560,
			"byteOffset":6708504,
			"target":34962
		},
		{
			"buffer":0,
			"byteLength":264804,
			"byteOffset":6887064,
			"target":34963
		},
		{
			"buffer":0,
			"byteLength":44340,
			"byteOffset":7151868,
			"target":34962
		},
		{
			"buffer":0,
			"byteLength":44340,
			"byteOffset":7196208,
			"target":34962
		},
		{
			"buffer":0,
			"byteLength":29560,
			"byteOffset":7240548,
			"target":34962
		},
		{
			"buffer":0,
			"byteLength":36288,
			"byteOffset":7270108,
			"target":34963
		},
		{
			"buffer":0,
			"byteLength":14772,
			"byteOffset":7306396,
			"target":34962
		},
		{
			"buffer":0,
			"byteLength":14772,
			"byteOffset":7321168,
			"target":34962
		},
		{
			"buffer":0,
			"byteLength":9848,
			"byteOffset":7335940,
			"target":34962
		},
		{
			"buffer":0,
			"byteLength":12072,
			"byteOffset":7345788,
			"target":34963
		},
		{
			"buffer":0,
			"byteLength":20184,
			"byteOffset":7357860,
			"target":34962
		},
		{
			"buffer":0,
			"byteLength":20184,
			"byteOffset":7378044,
			"target":34962
		},
		{
			"buffer":0,
			"byteLength":13456,
			"byteOffset":7398228,
			"target":34962
		},
		{
			"buffer":0,
			"byteLength":16644,
			"byteOffset":7411684,
			"target":34963
		},
		{
			"buffer":0,
			"byteLength":116148,
			"byteOffset":7428328,
			"target":34962
		},
		{
			"buffer":0,
			"byteLength":116148,
			"byteOffset":7544476,
			"target":34962
		},
		{
			"buffer":0,
			"byteLength":77432,
			"byteOffset":7660624,
			"target":34962
		},
		{
			"buffer":0,
			"byteLength":110808,
			"byteOffset":7738056,
			"target":34963
		},
		{
			"buffer":0,
			"byteLength":115620,
			"byteOffset":7848864,
			"target":34962
		},
		{
			"buffer":0,
			"byteLength":115620,
			"byteOffset":7964484,
			"target":34962
		},
		{
			"buffer":0,
			"byteLength":77080,
			"byteOffset":8080104,
			"target":34962
		},
		{
			"buffer":0,
			"byteLength":110280,
			"byteOffset":8157184,
			"target":34963
		}
	],
	"buffers":[
		{
			"byteLength":8267464,
			"uri":"Untitled2.bin"
		}
	]
}
