{
	"asset":{
		"generator":"Khronos glTF Blender I/O v4.4.56",
		"version":"2.0"
	},
	"scene":0,
	"scenes":[
		{
			"name":"Scene",
			"nodes":[
				70
			]
		}
	],
	"nodes":[
		{
			"name":"8b9c5156b1a6402f81c3e1c47b097b04.fbx",
			"rotation":[
				0,
				0.6958447098731995,
				0,
				0.7181922793388367
			],
			"scale":[
				0.021237580105662346,
				0.021237578243017197,
				0.021237578243017197
			],
			"translation":[
				1.5846707820892334,
				43.38882827758789,
				-0.030042290687561035
			]
		},
		{
			"name":"a49956f22d8249edac2f1b3f31af4f82.fbx",
			"rotation":[
				0,
				0.6222449541091919,
				0,
				0.7828226089477539
			],
			"scale":[
				0.02609936334192753,
				0.019279835745692253,
				0.02914433367550373
			],
			"translation":[
				1.0501127243041992,
				-1.3525513410568237,
				0.012855887413024902
			]
		},
		{
			"name":"Body_Back_Node_5",
			"rotation":[
				0,
				-0.7008171081542969,
				0,
				0.7133410573005676
			],
			"scale":[
				7.032930374145508,
				7.0329270362854,
				7.03292989730835
			],
			"translation":[
				0.43263375759124756,
				-3.685995101928711,
				-0.3719421625137329
			]
		},
		{
			"name":"Body_Back_Node_5.001",
			"rotation":[
				0.026636989787220955,
				0.6410736441612244,
				-0.037724610418081284,
				0.7660887241363525
			],
			"scale":[
				36.35612869262695,
				31.346662521362305,
				31.14789581298828
			],
			"translation":[
				-2.3696227073669434,
				-10.690375328063965,
				0.36288440227508545
			]
		},
		{
			"name":"Body_Front_Node_4",
			"rotation":[
				0,
				-0.7008171081542969,
				0,
				0.7133410573005676
			],
			"scale":[
				7.032930374145508,
				7.0329270362854,
				7.03292989730835
			],
			"translation":[
				0.43263375759124756,
				-3.685995101928711,
				-0.3719421625137329
			]
		},
		{
			"name":"Body_Front_Node_4.001",
			"rotation":[
				0.026636989787220955,
				0.6410736441612244,
				-0.037724610418081284,
				0.7660887241363525
			],
			"scale":[
				36.35612869262695,
				31.346662521362305,
				31.14789581298828
			],
			"translation":[
				-2.3696227073669434,
				-10.690375328063965,
				0.36288440227508545
			]
		},
		{
			"name":"Cloth_1",
			"rotation":[
				0,
				-0.7008171081542969,
				0,
				0.7133410573005676
			],
			"scale":[
				7.03292989730835,
				7.0329270362854,
				7.032929420471191
			],
			"translation":[
				0.43263375759124756,
				-3.685995101928711,
				-0.3719421625137329
			]
		},
		{
			"name":"Cloth_1.001",
			"rotation":[
				0.026636993512511253,
				0.6410736441612244,
				-0.037724610418081284,
				0.7660887241363525
			],
			"scale":[
				36.35612869262695,
				31.346662521362305,
				31.14789390563965
			],
			"translation":[
				-2.3696227073669434,
				-10.690375328063965,
				0.36288440227508545
			]
		},
		{
			"mesh":0,
			"name":"Cube.001",
			"scale":[
				1.291704773902893,
				1.291704773902893,
				1.291704773902893
			],
			"translation":[
				1.6654052734375,
				38.645172119140625,
				-3.4767274856567383
			]
		},
		{
			"name":"GLTF_SceneRootNode",
			"rotation":[
				0,
				-0.7008171081542969,
				0,
				0.7133411169052124
			],
			"scale":[
				7.032927989959717,
				7.0329270362854,
				7.032927513122559
			],
			"translation":[
				0.43263375759124756,
				-3.685995101928711,
				-0.3719421625137329
			]
		},
		{
			"name":"GLTF_SceneRootNode.001",
			"rotation":[
				0.026636991649866104,
				0.6410736441612244,
				-0.03772459551692009,
				0.7660888433456421
			],
			"scale":[
				36.35612106323242,
				31.346662521362305,
				31.14788246154785
			],
			"translation":[
				-2.3696227073669434,
				-10.690375328063965,
				0.36288440227508545
			]
		},
		{
			"name":"gorra.002",
			"rotation":[
				-0.5078386664390564,
				0.49203652143478394,
				0.49203652143478394,
				0.5078385472297668
			],
			"scale":[
				4.146673202514648,
				4.146672248840332,
				4.724119663238525
			],
			"translation":[
				1.7199468612670898,
				47.49553680419922,
				-0.029822468757629395
			]
		},
		{
			"mesh":1,
			"name":"gorra.002__0",
			"rotation":[
				-0.5078386664390564,
				0.49203652143478394,
				0.49203652143478394,
				0.5078385472297668
			],
			"scale":[
				4.533193111419678,
				4.076508522033691,
				5.164957523345947
			],
			"translation":[
				2.725626230239868,
				47.27654266357422,
				-0.30106067657470703
			]
		},
		{
			"mesh":2,
			"name":"Object_10",
			"rotation":[
				0.026636991649866104,
				0.6410736441612244,
				-0.03772461414337158,
				0.7660888433456421
			],
			"scale":[
				36.35612869262695,
				31.346662521362305,
				31.147897720336914
			],
			"translation":[
				-2.3696227073669434,
				-10.690375328063965,
				0.36288440227508545
			]
		},
		{
			"mesh":3,
			"name":"Object_11",
			"rotation":[
				0.026636991649866104,
				0.6410736441612244,
				-0.03772461414337158,
				0.7660888433456421
			],
			"scale":[
				36.35612869262695,
				31.346662521362305,
				31.147897720336914
			],
			"translation":[
				-2.3696227073669434,
				-10.690375328063965,
				0.36288440227508545
			]
		},
		{
			"mesh":4,
			"name":"Object_12",
			"rotation":[
				0.026636991649866104,
				0.6410736441612244,
				-0.03772461414337158,
				0.7660888433456421
			],
			"scale":[
				36.35612869262695,
				31.346662521362305,
				31.147897720336914
			],
			"translation":[
				-2.3696227073669434,
				-10.690375328063965,
				0.36288440227508545
			]
		},
		{
			"mesh":5,
			"name":"Object_14",
			"rotation":[
				0.026636991649866104,
				0.6410736441612244,
				-0.03772461414337158,
				0.7660888433456421
			],
			"scale":[
				36.35612869262695,
				31.346662521362305,
				31.147897720336914
			],
			"translation":[
				-2.3696227073669434,
				-10.690375328063965,
				0.36288440227508545
			]
		},
		{
			"mesh":6,
			"name":"Object_15",
			"rotation":[
				0.026636991649866104,
				0.6410736441612244,
				-0.03772461414337158,
				0.7660888433456421
			],
			"scale":[
				36.35612869262695,
				31.346662521362305,
				31.147897720336914
			],
			"translation":[
				-2.3696227073669434,
				-10.690375328063965,
				0.36288440227508545
			]
		},
		{
			"mesh":7,
			"name":"Object_16",
			"rotation":[
				0.026636991649866104,
				0.6410736441612244,
				-0.03772461414337158,
				0.7660888433456421
			],
			"scale":[
				36.35612869262695,
				31.346662521362305,
				31.147897720336914
			],
			"translation":[
				-2.3696227073669434,
				-10.690375328063965,
				0.36288440227508545
			]
		},
		{
			"mesh":8,
			"name":"Object_18",
			"rotation":[
				0.026636991649866104,
				0.6410736441612244,
				-0.03772461414337158,
				0.7660888433456421
			],
			"scale":[
				36.35612869262695,
				31.346662521362305,
				31.147897720336914
			],
			"translation":[
				-2.3696227073669434,
				-10.690375328063965,
				0.36288440227508545
			]
		},
		{
			"name":"Object_2",
			"rotation":[
				0,
				0.6958447098731995,
				0,
				0.7181922793388367
			],
			"scale":[
				0.021237580105662346,
				0.021237578243017197,
				0.021237578243017197
			],
			"translation":[
				1.5846707820892334,
				43.388824462890625,
				-0.030042290687561035
			]
		},
		{
			"mesh":9,
			"name":"Object_20",
			"rotation":[
				0.026636991649866104,
				0.6410736441612244,
				-0.03772461414337158,
				0.7660888433456421
			],
			"scale":[
				36.35612869262695,
				31.346662521362305,
				31.147897720336914
			],
			"translation":[
				-2.3696227073669434,
				-10.690375328063965,
				0.36288440227508545
			]
		},
		{
			"mesh":10,
			"name":"Object_6",
			"rotation":[
				0.026636991649866104,
				0.6410736441612244,
				-0.03772461414337158,
				0.7660888433456421
			],
			"scale":[
				36.35612869262695,
				31.346662521362305,
				31.147897720336914
			],
			"translation":[
				-2.3696227073669434,
				-10.690375328063965,
				0.36288440227508545
			]
		},
		{
			"mesh":11,
			"name":"Object_8",
			"rotation":[
				0.026636991649866104,
				0.6410736441612244,
				-0.03772461414337158,
				0.7660888433456421
			],
			"scale":[
				36.35612869262695,
				31.346662521362305,
				31.147897720336914
			],
			"translation":[
				-2.3696227073669434,
				-10.690375328063965,
				0.36288440227508545
			]
		},
		{
			"name":"Pattern2D_1249553",
			"rotation":[
				0,
				0.6222449541091919,
				0,
				0.7828226089477539
			],
			"scale":[
				0.2609935998916626,
				0.19279834628105164,
				0.2914433181285858
			],
			"translation":[
				1.0501128435134888,
				-1.3525511026382446,
				0.0128556489944458
			]
		},
		{
			"mesh":12,
			"name":"Pattern2D_1249553_Zipper_FRONT_72827_0",
			"rotation":[
				0,
				0.6222449541091919,
				0,
				0.7828226089477539
			],
			"scale":[
				0.2609935998916626,
				0.19279834628105164,
				0.2914433181285858
			],
			"translation":[
				1.0501128435134888,
				-1.3525511026382446,
				0.0128556489944458
			]
		},
		{
			"name":"Pattern2D_1249554",
			"rotation":[
				0,
				0.6222449541091919,
				0,
				0.7828226089477539
			],
			"scale":[
				0.2609935998916626,
				0.19279834628105164,
				0.2914433181285858
			],
			"translation":[
				1.0501128435134888,
				-1.3525511026382446,
				0.0128556489944458
			]
		},
		{
			"mesh":13,
			"name":"Pattern2D_1249554_Zipper_FRONT_72827_0",
			"rotation":[
				0,
				0.6222449541091919,
				0,
				0.7828226089477539
			],
			"scale":[
				0.2609935998916626,
				0.19279834628105164,
				0.2914433181285858
			],
			"translation":[
				1.0501128435134888,
				-1.3525511026382446,
				0.0128556489944458
			]
		},
		{
			"name":"Pattern2D_1434309",
			"rotation":[
				0,
				0.6222449541091919,
				0,
				0.7828226089477539
			],
			"scale":[
				0.2609935998916626,
				0.19279834628105164,
				0.2914433181285858
			],
			"translation":[
				1.0501128435134888,
				-1.3525511026382446,
				0.0128556489944458
			]
		},
		{
			"mesh":14,
			"name":"Pattern2D_1434309_Pocket_FRONT_72843_0",
			"rotation":[
				0,
				0.6222449541091919,
				0,
				0.7828226089477539
			],
			"scale":[
				0.2609935998916626,
				0.19279834628105164,
				0.2914433181285858
			],
			"translation":[
				1.0501128435134888,
				-1.3525511026382446,
				0.0128556489944458
			]
		},
		{
			"name":"Pattern2D_1438298",
			"rotation":[
				0,
				0.6222449541091919,
				0,
				0.7828226089477539
			],
			"scale":[
				0.2609935998916626,
				0.19279834628105164,
				0.2914433181285858
			],
			"translation":[
				1.0501128435134888,
				-1.3525511026382446,
				0.0128556489944458
			]
		},
		{
			"mesh":15,
			"name":"Pattern2D_1438298_Front/Back_FRONT_72833_0",
			"rotation":[
				0,
				0.6222449541091919,
				0,
				0.7828226089477539
			],
			"scale":[
				0.2609935998916626,
				0.19279834628105164,
				0.2914433181285858
			],
			"translation":[
				1.0501128435134888,
				-1.3525511026382446,
				0.0128556489944458
			]
		},
		{
			"name":"Pattern2D_1439306",
			"rotation":[
				0,
				0.6222449541091919,
				0,
				0.7828226089477539
			],
			"scale":[
				0.2609935998916626,
				0.19279834628105164,
				0.2914433181285858
			],
			"translation":[
				1.0501128435134888,
				-1.3525511026382446,
				0.0128556489944458
			]
		},
		{
			"mesh":16,
			"name":"Pattern2D_1439306_Front/Back_FRONT_72833_0",
			"rotation":[
				0,
				0.6222449541091919,
				0,
				0.7828226089477539
			],
			"scale":[
				0.2609935998916626,
				0.19279834628105164,
				0.2914433181285858
			],
			"translation":[
				1.0501128435134888,
				-1.3525511026382446,
				0.0128556489944458
			]
		},
		{
			"name":"Pattern2D_1439307",
			"rotation":[
				0,
				0.6222449541091919,
				0,
				0.7828226089477539
			],
			"scale":[
				0.2609935998916626,
				0.19279834628105164,
				0.2914433181285858
			],
			"translation":[
				1.0501128435134888,
				-1.3525511026382446,
				0.0128556489944458
			]
		},
		{
			"mesh":17,
			"name":"Pattern2D_1439307_Pocket_FRONT_72843_0",
			"rotation":[
				0,
				0.6222449541091919,
				0,
				0.7828226089477539
			],
			"scale":[
				0.2609935998916626,
				0.19279834628105164,
				0.2914433181285858
			],
			"translation":[
				1.0501128435134888,
				-1.3525511026382446,
				0.0128556489944458
			]
		},
		{
			"name":"Pattern2D_1506279",
			"rotation":[
				0,
				0.6222449541091919,
				0,
				0.7828226089477539
			],
			"scale":[
				0.2609935998916626,
				0.19279834628105164,
				0.2914433181285858
			],
			"translation":[
				1.0501128435134888,
				-1.3525511026382446,
				0.0128556489944458
			]
		},
		{
			"mesh":18,
			"name":"Pattern2D_1506279_Pocket_FRONT_72843_0",
			"rotation":[
				0,
				0.6222449541091919,
				0,
				0.7828226089477539
			],
			"scale":[
				0.2609935998916626,
				0.19279834628105164,
				0.2914433181285858
			],
			"translation":[
				1.0501128435134888,
				-1.3525511026382446,
				0.0128556489944458
			]
		},
		{
			"name":"Pattern2D_1506290",
			"rotation":[
				0,
				0.6222449541091919,
				0,
				0.7828226089477539
			],
			"scale":[
				0.2609935998916626,
				0.19279834628105164,
				0.2914433181285858
			],
			"translation":[
				1.0501128435134888,
				-1.3525511026382446,
				0.0128556489944458
			]
		},
		{
			"mesh":19,
			"name":"Pattern2D_1506290_Pocket_FRONT_72843_0",
			"rotation":[
				0,
				0.6222449541091919,
				0,
				0.7828226089477539
			],
			"scale":[
				0.2609935998916626,
				0.19279834628105164,
				0.2914433181285858
			],
			"translation":[
				1.0501128435134888,
				-1.3525511026382446,
				0.0128556489944458
			]
		},
		{
			"name":"Pattern2D_1506376",
			"rotation":[
				0,
				0.6222449541091919,
				0,
				0.7828226089477539
			],
			"scale":[
				0.2609935998916626,
				0.19279834628105164,
				0.2914433181285858
			],
			"translation":[
				1.0501128435134888,
				-1.3525511026382446,
				0.0128556489944458
			]
		},
		{
			"name":"Pattern2D_1506376.001",
			"rotation":[
				0,
				0.6222449541091919,
				0,
				0.7828226089477539
			],
			"scale":[
				0.2609935998916626,
				0.19279834628105164,
				0.2914433181285858
			],
			"translation":[
				1.0501128435134888,
				-1.3525511026382446,
				0.0128556489944458
			]
		},
		{
			"mesh":20,
			"name":"Pattern2D_1506376_Pocket_FRONT_72843_0",
			"rotation":[
				0,
				0.6222449541091919,
				0,
				0.7828226089477539
			],
			"scale":[
				0.2609935998916626,
				0.19279834628105164,
				0.2914433181285858
			],
			"translation":[
				1.0501128435134888,
				-1.3525511026382446,
				0.0128556489944458
			]
		},
		{
			"mesh":21,
			"name":"Pattern2D_1506376_Pocket_FRONT_72843_0.001",
			"rotation":[
				0,
				0.6222449541091919,
				0,
				0.7828226089477539
			],
			"scale":[
				0.2609935998916626,
				0.19279834628105164,
				0.2914433181285858
			],
			"translation":[
				1.0501128435134888,
				-1.3525511026382446,
				0.0128556489944458
			]
		},
		{
			"name":"Pattern2D_762026",
			"rotation":[
				0,
				0.6222449541091919,
				0,
				0.7828226089477539
			],
			"scale":[
				0.2609935998916626,
				0.19279834628105164,
				0.2914433181285858
			],
			"translation":[
				1.0501128435134888,
				-1.3525511026382446,
				0.0128556489944458
			]
		},
		{
			"mesh":22,
			"name":"Pattern2D_762026_Front/Back_FRONT_72833_0",
			"rotation":[
				0,
				0.6222449541091919,
				0,
				0.7828226089477539
			],
			"scale":[
				0.2609935998916626,
				0.19279834628105164,
				0.2914433181285858
			],
			"translation":[
				1.0501128435134888,
				-1.3525511026382446,
				0.0128556489944458
			]
		},
		{
			"name":"Pattern2D_762798",
			"rotation":[
				0,
				0.6222449541091919,
				0,
				0.7828226089477539
			],
			"scale":[
				0.2609935998916626,
				0.19279834628105164,
				0.2914433181285858
			],
			"translation":[
				1.0501128435134888,
				-1.3525511026382446,
				0.0128556489944458
			]
		},
		{
			"mesh":23,
			"name":"Pattern2D_762798_Front/Back_FRONT_72833_0",
			"rotation":[
				0,
				0.6222449541091919,
				0,
				0.7828226089477539
			],
			"scale":[
				0.2609935998916626,
				0.19279834628105164,
				0.2914433181285858
			],
			"translation":[
				1.0501128435134888,
				-1.3525511026382446,
				0.0128556489944458
			]
		},
		{
			"name":"Pattern2D_787193",
			"rotation":[
				0,
				0.6222449541091919,
				0,
				0.7828226089477539
			],
			"scale":[
				0.2609935998916626,
				0.19279834628105164,
				0.2914433181285858
			],
			"translation":[
				1.0501128435134888,
				-1.3525511026382446,
				0.0128556489944458
			]
		},
		{
			"mesh":24,
			"name":"Pattern2D_787193_Waist Belt_FRONT_72838_0",
			"rotation":[
				0,
				0.6222449541091919,
				0,
				0.7828226089477539
			],
			"scale":[
				0.2609935998916626,
				0.19279834628105164,
				0.2914433181285858
			],
			"translation":[
				1.0501128435134888,
				-1.3525511026382446,
				0.0128556489944458
			]
		},
		{
			"name":"Pattern2D_787876",
			"rotation":[
				0,
				0.6222449541091919,
				0,
				0.7828226089477539
			],
			"scale":[
				0.2609935998916626,
				0.19279834628105164,
				0.2914433181285858
			],
			"translation":[
				1.0501128435134888,
				-1.3525511026382446,
				0.0128556489944458
			]
		},
		{
			"mesh":25,
			"name":"Pattern2D_787876_Waist Belt_FRONT_72838_0",
			"rotation":[
				0,
				0.6222449541091919,
				0,
				0.7828226089477539
			],
			"scale":[
				0.2609935998916626,
				0.19279834628105164,
				0.2914433181285858
			],
			"translation":[
				1.0501128435134888,
				-1.3525511026382446,
				0.0128556489944458
			]
		},
		{
			"name":"Ribbing_Node_2",
			"rotation":[
				0,
				-0.7008171081542969,
				0,
				0.7133410573005676
			],
			"scale":[
				7.032930374145508,
				7.0329270362854,
				7.03292989730835
			],
			"translation":[
				0.43263375759124756,
				-3.685995101928711,
				-0.3719421625137329
			]
		},
		{
			"name":"Ribbing_Node_2.001",
			"rotation":[
				0.026636989787220955,
				0.6410736441612244,
				-0.037724610418081284,
				0.7660887241363525
			],
			"scale":[
				36.35612869262695,
				31.346662521362305,
				31.14789581298828
			],
			"translation":[
				-2.3696227073669434,
				-10.690375328063965,
				0.36288440227508545
			]
		},
		{
			"name":"Ribbing_Node_3",
			"rotation":[
				0,
				-0.7008171081542969,
				0,
				0.7133410573005676
			],
			"scale":[
				7.032930374145508,
				7.0329270362854,
				7.03292989730835
			],
			"translation":[
				0.43263375759124756,
				-3.685995101928711,
				-0.3719421625137329
			]
		},
		{
			"name":"Ribbing_Node_3.001",
			"rotation":[
				0.026636989787220955,
				0.6410736441612244,
				-0.037724610418081284,
				0.7660887241363525
			],
			"scale":[
				36.35612869262695,
				31.346662521362305,
				31.14789581298828
			],
			"translation":[
				-2.3696227073669434,
				-10.690375328063965,
				0.36288440227508545
			]
		},
		{
			"name":"root",
			"rotation":[
				-0.5044083595275879,
				-0.4955524504184723,
				-0.4955524504184723,
				0.5044084787368774
			],
			"scale":[
				7.0329270362854,
				7.0329270362854,
				7.032927513122559
			],
			"translation":[
				0.43263375759124756,
				-3.685995101928711,
				-0.3719421625137329
			]
		},
		{
			"name":"root.001",
			"rotation":[
				-0.5228714942932129,
				0.47998276352882385,
				0.426632285118103,
				0.560541570186615
			],
			"scale":[
				36.356117248535156,
				31.147878646850586,
				31.346662521362305
			],
			"translation":[
				-2.3696227073669434,
				-10.690375328063965,
				0.36288440227508545
			]
		},
		{
			"name":"RootNode",
			"rotation":[
				0,
				0.6222449541091919,
				0,
				0.7828226089477539
			],
			"scale":[
				0.026099365204572678,
				0.019279835745692253,
				0.02914433367550373
			],
			"translation":[
				1.0501127243041992,
				-1.3525512218475342,
				0.012855768203735352
			]
		},
		{
			"name":"RootNode.001",
			"rotation":[
				0,
				0.6958447098731995,
				0,
				0.7181922793388367
			],
			"scale":[
				0.021237580105662346,
				0.021237578243017197,
				0.021237578243017197
			],
			"translation":[
				1.5846707820892334,
				43.38882064819336,
				-0.030042290687561035
			]
		},
		{
			"name":"Sketchfab_model",
			"rotation":[
				-0.5044084191322327,
				-0.4955523908138275,
				-0.4955523908138275,
				0.5044084191322327
			],
			"scale":[
				7.0329270362854,
				7.0329270362854,
				7.032927513122559
			],
			"translation":[
				0.43263375759124756,
				-3.685995101928711,
				-0.3719421625137329
			]
		},
		{
			"name":"Sketchfab_model.001",
			"rotation":[
				-0.5228714346885681,
				0.47998273372650146,
				0.42663225531578064,
				0.5605418086051941
			],
			"scale":[
				36.35611343383789,
				31.147872924804688,
				31.34665870666504
			],
			"translation":[
				-2.3696227073669434,
				-10.690375328063965,
				0.36288440227508545
			]
		},
		{
			"name":"Sketchfab_model.002",
			"rotation":[
				-0.5535391569137573,
				0.43999361991882324,
				0.43999364972114563,
				0.5535391569137573
			],
			"scale":[
				0.02609936147928238,
				0.02914433553814888,
				0.019279837608337402
			],
			"translation":[
				1.0501127243041992,
				-1.3525513410568237,
				0.012856006622314453
			]
		},
		{
			"name":"Sketchfab_model.003",
			"rotation":[
				-0.5078386664390564,
				0.49203652143478394,
				0.49203652143478394,
				0.5078385472297668
			],
			"scale":[
				0.021237580105662346,
				0.021237580105662346,
				0.021237580105662346
			],
			"translation":[
				1.5846707820892334,
				43.388832092285156,
				-0.030042290687561035
			]
		},
		{
			"name":"Sleeves_Node_6",
			"rotation":[
				0,
				-0.7008171081542969,
				0,
				0.7133410573005676
			],
			"scale":[
				7.032930374145508,
				7.0329270362854,
				7.03292989730835
			],
			"translation":[
				0.43263375759124756,
				-3.685995101928711,
				-0.3719421625137329
			]
		},
		{
			"name":"Sleeves_Node_6.001",
			"rotation":[
				0.026636989787220955,
				0.6410736441612244,
				-0.037724610418081284,
				0.7660887241363525
			],
			"scale":[
				36.35612869262695,
				31.346662521362305,
				31.14789581298828
			],
			"translation":[
				-2.3696227073669434,
				-10.690375328063965,
				0.36288440227508545
			]
		},
		{
			"name":"Sleeves_Node_7",
			"rotation":[
				0,
				-0.7008171081542969,
				0,
				0.7133410573005676
			],
			"scale":[
				7.032930374145508,
				7.0329270362854,
				7.03292989730835
			],
			"translation":[
				0.43263375759124756,
				-3.685995101928711,
				-0.3719421625137329
			]
		},
		{
			"name":"Sleeves_Node_7.001",
			"rotation":[
				0.026636989787220955,
				0.6410736441612244,
				-0.037724610418081284,
				0.7660887241363525
			],
			"scale":[
				36.35612869262695,
				31.346662521362305,
				31.14789581298828
			],
			"translation":[
				-2.3696227073669434,
				-10.690375328063965,
				0.36288440227508545
			]
		},
		{
			"name":"T_shirt_gltf.zip_Scene_Node_0",
			"rotation":[
				0,
				-0.7008171081542969,
				0,
				0.7133410573005676
			],
			"scale":[
				7.032929420471191,
				7.0329270362854,
				7.032928466796875
			],
			"translation":[
				0.43263375759124756,
				-3.685995101928711,
				-0.3719421625137329
			]
		},
		{
			"name":"T_shirt_gltf.zip_Scene_Node_0.001",
			"rotation":[
				0.026636997237801552,
				0.6410736441612244,
				-0.03772460296750069,
				0.7660888433456421
			],
			"scale":[
				36.35612487792969,
				31.346662521362305,
				31.14788818359375
			],
			"translation":[
				-2.3696227073669434,
				-10.690375328063965,
				0.36288440227508545
			]
		},
		{
			"children":[
				0,
				1,
				2,
				3,
				4,
				5,
				6,
				7,
				8,
				9,
				10,
				11,
				12,
				13,
				14,
				15,
				16,
				17,
				18,
				19,
				20,
				21,
				22,
				23,
				24,
				25,
				26,
				27,
				28,
				29,
				30,
				31,
				32,
				33,
				34,
				35,
				36,
				37,
				38,
				39,
				40,
				41,
				42,
				43,
				44,
				45,
				46,
				47,
				48,
				49,
				50,
				51,
				52,
				53,
				54,
				55,
				56,
				57,
				58,
				59,
				60,
				61,
				62,
				63,
				64,
				65,
				66,
				67,
				68,
				69
			],
			"name":"maniquiGroup",
			"translation":[
				-0.6167466044425964,
				-0.5747710466384888,
				1.5584696531295776
			]
		}
	],
	"materials":[
		{
			"doubleSided":true,
			"name":"Scene_-_Root",
			"pbrMetallicRoughness":{
				"metallicFactor":0,
				"roughnessFactor":0.6000000238418579
			}
		},
		{
			"name":"Body_FRONT_2664.001",
			"pbrMetallicRoughness":{
				"metallicFactor":0,
				"roughnessFactor":0.5
			}
		},
		{
			"name":"Sleeves_FRONT_2669.001",
			"pbrMetallicRoughness":{
				"metallicFactor":0,
				"roughnessFactor":0.5
			}
		},
		{
			"doubleSided":true,
			"name":"Zipper_FRONT_72827",
			"pbrMetallicRoughness":{
				"metallicFactor":0,
				"roughnessFactor":0.9826311469078064
			}
		},
		{
			"doubleSided":true,
			"name":"Zipper_FRONT_72827_0",
			"pbrMetallicRoughness":{
				"metallicFactor":0,
				"roughnessFactor":0.9826311469078064
			}
		},
		{
			"doubleSided":true,
			"name":"Pocket_FRONT_72843",
			"pbrMetallicRoughness":{
				"metallicFactor":0,
				"roughnessFactor":0.9826311469078064
			}
		},
		{
			"doubleSided":true,
			"name":"FrontBack_FRONT_72833_1",
			"pbrMetallicRoughness":{
				"metallicFactor":0,
				"roughnessFactor":0.9826311469078064
			}
		},
		{
			"doubleSided":true,
			"name":"FrontBack_FRONT_72833_2",
			"pbrMetallicRoughness":{
				"metallicFactor":0,
				"roughnessFactor":0.9826311469078064
			}
		},
		{
			"doubleSided":true,
			"name":"Pocket_FRONT_72843_0",
			"pbrMetallicRoughness":{
				"metallicFactor":0,
				"roughnessFactor":0.9826311469078064
			}
		},
		{
			"doubleSided":true,
			"name":"Pocket_FRONT_72843_1",
			"pbrMetallicRoughness":{
				"metallicFactor":0,
				"roughnessFactor":0.9826311469078064
			}
		},
		{
			"doubleSided":true,
			"name":"Pocket_FRONT_72843_2",
			"pbrMetallicRoughness":{
				"metallicFactor":0,
				"roughnessFactor":0.9826311469078064
			}
		},
		{
			"doubleSided":true,
			"name":"Pocket_FRONT_72843_3",
			"pbrMetallicRoughness":{
				"metallicFactor":0,
				"roughnessFactor":0.9826311469078064
			}
		},
		{
			"doubleSided":true,
			"name":"Pocket_FRONT_72843_4",
			"pbrMetallicRoughness":{
				"metallicFactor":0,
				"roughnessFactor":0.9826311469078064
			}
		},
		{
			"doubleSided":true,
			"name":"FrontBack_FRONT_72833",
			"pbrMetallicRoughness":{
				"metallicFactor":0,
				"roughnessFactor":0.9826311469078064
			}
		},
		{
			"doubleSided":true,
			"name":"FrontBack_FRONT_72833_0",
			"pbrMetallicRoughness":{
				"metallicFactor":0,
				"roughnessFactor":0.9826311469078064
			}
		},
		{
			"doubleSided":true,
			"name":"Waist_Belt_FRONT_72838",
			"pbrMetallicRoughness":{
				"metallicFactor":0,
				"roughnessFactor":0.9826311469078064
			}
		},
		{
			"doubleSided":true,
			"name":"Waist_Belt_FRONT_72838_0",
			"pbrMetallicRoughness":{
				"metallicFactor":0,
				"roughnessFactor":0.9826311469078064
			}
		}
	],
	"meshes":[
		{
			"name":"Cube.005",
			"primitives":[
				{
					"attributes":{
						"POSITION":0,
						"NORMAL":1,
						"TEXCOORD_0":2
					},
					"indices":3
				}
			]
		},
		{
			"name":"gorra.002__0",
			"primitives":[
				{
					"attributes":{
						"POSITION":4,
						"NORMAL":5,
						"TEXCOORD_0":6
					},
					"indices":7,
					"material":0
				}
			]
		},
		{
			"name":"Object_2.001",
			"primitives":[
				{
					"attributes":{
						"POSITION":8,
						"NORMAL":9,
						"TEXCOORD_0":10
					},
					"indices":11,
					"material":1
				}
			]
		},
		{
			"name":"Object_3.001",
			"primitives":[
				{
					"attributes":{
						"POSITION":12,
						"NORMAL":13,
						"TEXCOORD_0":14
					},
					"indices":15,
					"material":1
				}
			]
		},
		{
			"name":"Object_4.001",
			"primitives":[
				{
					"attributes":{
						"POSITION":16,
						"NORMAL":17,
						"TEXCOORD_0":18
					},
					"indices":19,
					"material":1
				}
			]
		},
		{
			"name":"Object_5.001",
			"primitives":[
				{
					"attributes":{
						"POSITION":20,
						"NORMAL":21,
						"TEXCOORD_0":22
					},
					"indices":23,
					"material":1
				}
			]
		},
		{
			"name":"Object_6.001",
			"primitives":[
				{
					"attributes":{
						"POSITION":24,
						"NORMAL":25,
						"TEXCOORD_0":26
					},
					"indices":27,
					"material":1
				}
			]
		},
		{
			"name":"Object_7.001",
			"primitives":[
				{
					"attributes":{
						"POSITION":28,
						"NORMAL":29,
						"TEXCOORD_0":30
					},
					"indices":31,
					"material":1
				}
			]
		},
		{
			"name":"Object_8.001",
			"primitives":[
				{
					"attributes":{
						"POSITION":32,
						"NORMAL":33,
						"TEXCOORD_0":34
					},
					"indices":35,
					"material":2
				}
			]
		},
		{
			"name":"Object_9.001",
			"primitives":[
				{
					"attributes":{
						"POSITION":36,
						"NORMAL":37,
						"TEXCOORD_0":38
					},
					"indices":39,
					"material":2
				}
			]
		},
		{
			"name":"Object_0.001",
			"primitives":[
				{
					"attributes":{
						"POSITION":40,
						"NORMAL":41,
						"TEXCOORD_0":42
					},
					"indices":43,
					"material":1
				}
			]
		},
		{
			"name":"Object_1.001",
			"primitives":[
				{
					"attributes":{
						"POSITION":44,
						"NORMAL":45,
						"TEXCOORD_0":46
					},
					"indices":47,
					"material":1
				}
			]
		},
		{
			"name":"Pattern2D_1249553_Zipper_FRONT_72827_0",
			"primitives":[
				{
					"attributes":{
						"POSITION":48,
						"NORMAL":49,
						"TEXCOORD_0":50,
						"TEXCOORD_1":51
					},
					"indices":52,
					"material":3
				}
			]
		},
		{
			"name":"Pattern2D_1249554_Zipper_FRONT_72827_0",
			"primitives":[
				{
					"attributes":{
						"POSITION":53,
						"NORMAL":54,
						"TEXCOORD_0":55,
						"TEXCOORD_1":56
					},
					"indices":57,
					"material":4
				}
			]
		},
		{
			"name":"Pattern2D_1434309_Pocket_FRONT_72843_0",
			"primitives":[
				{
					"attributes":{
						"POSITION":58,
						"NORMAL":59,
						"TEXCOORD_0":60,
						"TEXCOORD_1":61
					},
					"indices":62,
					"material":5
				}
			]
		},
		{
			"name":"Pattern2D_1438298_Front/Back_FRONT_72833_0",
			"primitives":[
				{
					"attributes":{
						"POSITION":63,
						"NORMAL":64,
						"TEXCOORD_0":65,
						"TEXCOORD_1":66
					},
					"indices":67,
					"material":6
				}
			]
		},
		{
			"name":"Pattern2D_1439306_Front/Back_FRONT_72833_0",
			"primitives":[
				{
					"attributes":{
						"POSITION":68,
						"NORMAL":69,
						"TEXCOORD_0":70,
						"TEXCOORD_1":71
					},
					"indices":72,
					"material":7
				}
			]
		},
		{
			"name":"Pattern2D_1439307_Pocket_FRONT_72843_0",
			"primitives":[
				{
					"attributes":{
						"POSITION":73,
						"NORMAL":74,
						"TEXCOORD_0":75,
						"TEXCOORD_1":76
					},
					"indices":77,
					"material":8
				}
			]
		},
		{
			"name":"Pattern2D_1506279_Pocket_FRONT_72843_0",
			"primitives":[
				{
					"attributes":{
						"POSITION":78,
						"NORMAL":79,
						"TEXCOORD_0":80,
						"TEXCOORD_1":81
					},
					"indices":82,
					"material":9
				}
			]
		},
		{
			"name":"Pattern2D_1506290_Pocket_FRONT_72843_0",
			"primitives":[
				{
					"attributes":{
						"POSITION":83,
						"NORMAL":84,
						"TEXCOORD_0":85,
						"TEXCOORD_1":86
					},
					"indices":87,
					"material":10
				}
			]
		},
		{
			"name":"Pattern2D_1506376_Pocket_FRONT_72843_0",
			"primitives":[
				{
					"attributes":{
						"POSITION":88,
						"NORMAL":89,
						"TEXCOORD_0":90,
						"TEXCOORD_1":91
					},
					"indices":82,
					"material":11
				}
			]
		},
		{
			"name":"Pattern2D_1506376_Pocket_FRONT_72843_0.001",
			"primitives":[
				{
					"attributes":{
						"POSITION":92,
						"NORMAL":93,
						"TEXCOORD_0":94,
						"TEXCOORD_1":95
					},
					"indices":87,
					"material":12
				}
			]
		},
		{
			"name":"Pattern2D_762026_Front/Back_FRONT_72833_0",
			"primitives":[
				{
					"attributes":{
						"POSITION":96,
						"NORMAL":97,
						"TEXCOORD_0":98,
						"TEXCOORD_1":99
					},
					"indices":100,
					"material":13
				}
			]
		},
		{
			"name":"Pattern2D_762798_Front/Back_FRONT_72833_0",
			"primitives":[
				{
					"attributes":{
						"POSITION":101,
						"NORMAL":102,
						"TEXCOORD_0":103,
						"TEXCOORD_1":104
					},
					"indices":105,
					"material":14
				}
			]
		},
		{
			"name":"Pattern2D_787193_Waist Belt_FRONT_72838_0",
			"primitives":[
				{
					"attributes":{
						"POSITION":106,
						"NORMAL":107,
						"TEXCOORD_0":108,
						"TEXCOORD_1":109
					},
					"indices":110,
					"material":15
				}
			]
		},
		{
			"name":"Pattern2D_787876_Waist Belt_FRONT_72838_0",
			"primitives":[
				{
					"attributes":{
						"POSITION":111,
						"NORMAL":112,
						"TEXCOORD_0":113,
						"TEXCOORD_1":114
					},
					"indices":115,
					"material":16
				}
			]
		}
	],
	"accessors":[
		{
			"bufferView":0,
			"componentType":5126,
			"count":124,
			"max":[
				2.405531644821167,
				7.596341609954834,
				12.827314376831055
			],
			"min":[
				-3.4907264709472656,
				-27.122539520263672,
				-8.194968223571777
			],
			"type":"VEC3"
		},
		{
			"bufferView":1,
			"componentType":5126,
			"count":124,
			"type":"VEC3"
		},
		{
			"bufferView":2,
			"componentType":5126,
			"count":124,
			"type":"VEC2"
		},
		{
			"bufferView":3,
			"componentType":5123,
			"count":492,
			"type":"SCALAR"
		},
		{
			"bufferView":4,
			"componentType":5126,
			"count":63566,
			"max":[
				0.9714441895484924,
				1.1251803636550903,
				0.4405687749385834
			],
			"min":[
				-0.9715989828109741,
				-1.5356779098510742,
				-0.7322534918785095
			],
			"type":"VEC3"
		},
		{
			"bufferView":5,
			"componentType":5126,
			"count":63566,
			"type":"VEC3"
		},
		{
			"bufferView":6,
			"componentType":5126,
			"count":63566,
			"type":"VEC2"
		},
		{
			"bufferView":7,
			"componentType":5123,
			"count":279600,
			"type":"SCALAR"
		},
		{
			"bufferView":8,
			"componentType":5126,
			"count":22320,
			"max":[
				0.2065085917711258,
				1.6276650428771973,
				0.1597357988357544
			],
			"min":[
				-0.20776261389255524,
				0.9531669020652771,
				-0.04202919453382492
			],
			"type":"VEC3"
		},
		{
			"bufferView":9,
			"componentType":5126,
			"count":22320,
			"type":"VEC3"
		},
		{
			"bufferView":10,
			"componentType":5126,
			"count":22320,
			"type":"VEC2"
		},
		{
			"bufferView":11,
			"componentType":5123,
			"count":132402,
			"type":"SCALAR"
		},
		{
			"bufferView":12,
			"componentType":5126,
			"count":22320,
			"max":[
				0.20620815455913544,
				1.6272343397140503,
				0.15923799574375153
			],
			"min":[
				-0.2074778825044632,
				0.9531122446060181,
				-0.042154423892498016
			],
			"type":"VEC3"
		},
		{
			"bufferView":13,
			"componentType":5126,
			"count":22320,
			"type":"VEC3"
		},
		{
			"bufferView":14,
			"componentType":5126,
			"count":22320,
			"type":"VEC2"
		},
		{
			"bufferView":15,
			"componentType":5123,
			"count":132402,
			"type":"SCALAR"
		},
		{
			"bufferView":16,
			"componentType":5126,
			"count":3695,
			"max":[
				0.2065085917711258,
				1.6276650428771973,
				0.1597357988357544
			],
			"min":[
				-0.20776261389255524,
				0.9531122446060181,
				-0.042154423892498016
			],
			"type":"VEC3"
		},
		{
			"bufferView":17,
			"componentType":5126,
			"count":3695,
			"type":"VEC3"
		},
		{
			"bufferView":18,
			"componentType":5126,
			"count":3695,
			"type":"VEC2"
		},
		{
			"bufferView":19,
			"componentType":5123,
			"count":18144,
			"type":"SCALAR"
		},
		{
			"bufferView":20,
			"componentType":5126,
			"count":24268,
			"max":[
				0.2079797089099884,
				1.629104495048523,
				0.008685611188411713
			],
			"min":[
				-0.20775645971298218,
				0.9362870454788208,
				-0.14934851229190826
			],
			"type":"VEC3"
		},
		{
			"bufferView":21,
			"componentType":5126,
			"count":24268,
			"type":"VEC3"
		},
		{
			"bufferView":22,
			"componentType":5126,
			"count":24268,
			"type":"VEC2"
		},
		{
			"bufferView":23,
			"componentType":5123,
			"count":144126,
			"type":"SCALAR"
		},
		{
			"bufferView":24,
			"componentType":5126,
			"count":24268,
			"max":[
				0.2076701521873474,
				1.6286565065383911,
				0.0087042897939682
			],
			"min":[
				-0.20746342837810516,
				0.9363815188407898,
				-0.14884860813617706
			],
			"type":"VEC3"
		},
		{
			"bufferView":25,
			"componentType":5126,
			"count":24268,
			"type":"VEC3"
		},
		{
			"bufferView":26,
			"componentType":5126,
			"count":24268,
			"type":"VEC2"
		},
		{
			"bufferView":27,
			"componentType":5123,
			"count":144126,
			"type":"SCALAR"
		},
		{
			"bufferView":28,
			"componentType":5126,
			"count":3542,
			"max":[
				0.2079797089099884,
				1.629104495048523,
				0.0087042897939682
			],
			"min":[
				-0.20775645971298218,
				0.9362870454788208,
				-0.12620921432971954
			],
			"type":"VEC3"
		},
		{
			"bufferView":29,
			"componentType":5126,
			"count":3542,
			"type":"VEC3"
		},
		{
			"bufferView":30,
			"componentType":5126,
			"count":3542,
			"type":"VEC2"
		},
		{
			"bufferView":31,
			"componentType":5123,
			"count":17712,
			"type":"SCALAR"
		},
		{
			"bufferView":32,
			"componentType":5126,
			"count":9679,
			"max":[
				0.3258504271507263,
				1.5755043029785156,
				0.043447691947221756
			],
			"min":[
				0.1786404252052307,
				1.3577498197555542,
				-0.11446479707956314
			],
			"type":"VEC3"
		},
		{
			"bufferView":33,
			"componentType":5126,
			"count":9679,
			"type":"VEC3"
		},
		{
			"bufferView":34,
			"componentType":5126,
			"count":9679,
			"type":"VEC2"
		},
		{
			"bufferView":35,
			"componentType":5123,
			"count":55404,
			"type":"SCALAR"
		},
		{
			"bufferView":36,
			"componentType":5126,
			"count":9635,
			"max":[
				-0.1801571100950241,
				1.5748897790908813,
				0.0432635173201561
			],
			"min":[
				-0.3271026909351349,
				1.3555173873901367,
				-0.11441069096326828
			],
			"type":"VEC3"
		},
		{
			"bufferView":37,
			"componentType":5126,
			"count":9635,
			"type":"VEC3"
		},
		{
			"bufferView":38,
			"componentType":5126,
			"count":9635,
			"type":"VEC2"
		},
		{
			"bufferView":39,
			"componentType":5123,
			"count":55140,
			"type":"SCALAR"
		},
		{
			"bufferView":40,
			"componentType":5126,
			"count":1231,
			"max":[
				0.08587206900119781,
				1.6379107236862183,
				-0.03707779943943024
			],
			"min":[
				-0.08669203519821167,
				1.6181021928787231,
				-0.0870811864733696
			],
			"type":"VEC3"
		},
		{
			"bufferView":41,
			"componentType":5126,
			"count":1231,
			"type":"VEC3"
		},
		{
			"bufferView":42,
			"componentType":5126,
			"count":1231,
			"type":"VEC2"
		},
		{
			"bufferView":43,
			"componentType":5123,
			"count":6036,
			"type":"SCALAR"
		},
		{
			"bufferView":44,
			"componentType":5126,
			"count":1682,
			"max":[
				0.08620669692754745,
				1.636293649673462,
				0.04639703407883644
			],
			"min":[
				-0.08711935579776764,
				1.5608046054840088,
				-0.042142901569604874
			],
			"type":"VEC3"
		},
		{
			"bufferView":45,
			"componentType":5126,
			"count":1682,
			"type":"VEC3"
		},
		{
			"bufferView":46,
			"componentType":5126,
			"count":1682,
			"type":"VEC2"
		},
		{
			"bufferView":47,
			"componentType":5123,
			"count":8322,
			"type":"SCALAR"
		},
		{
			"bufferView":48,
			"componentType":5126,
			"count":119,
			"max":[
				4.444186687469482,
				109.97834777832031,
				12.401683807373047
			],
			"min":[
				0.03802797943353653,
				96.15299987792969,
				9.943655967712402
			],
			"type":"VEC3"
		},
		{
			"bufferView":49,
			"componentType":5126,
			"count":119,
			"type":"VEC3"
		},
		{
			"bufferView":50,
			"componentType":5126,
			"count":119,
			"type":"VEC2"
		},
		{
			"bufferView":51,
			"componentType":5126,
			"count":119,
			"type":"VEC2"
		},
		{
			"bufferView":52,
			"componentType":5123,
			"count":591,
			"type":"SCALAR"
		},
		{
			"bufferView":53,
			"componentType":5126,
			"count":119,
			"max":[
				4.37634801864624,
				109.97834777832031,
				12.21472454071045
			],
			"min":[
				-0.016679702326655388,
				96.15299987792969,
				9.734210968017578
			],
			"type":"VEC3"
		},
		{
			"bufferView":54,
			"componentType":5126,
			"count":119,
			"type":"VEC3"
		},
		{
			"bufferView":55,
			"componentType":5126,
			"count":119,
			"type":"VEC2"
		},
		{
			"bufferView":56,
			"componentType":5126,
			"count":119,
			"type":"VEC2"
		},
		{
			"bufferView":57,
			"componentType":5123,
			"count":591,
			"type":"SCALAR"
		},
		{
			"bufferView":58,
			"componentType":5126,
			"count":158,
			"max":[
				18.65559959411621,
				111.85176849365234,
				11.29124641418457
			],
			"min":[
				8.138638496398926,
				89.80416870117188,
				0.8552221655845642
			],
			"type":"VEC3"
		},
		{
			"bufferView":59,
			"componentType":5126,
			"count":158,
			"type":"VEC3"
		},
		{
			"bufferView":60,
			"componentType":5126,
			"count":158,
			"type":"VEC2"
		},
		{
			"bufferView":61,
			"componentType":5126,
			"count":158,
			"type":"VEC2"
		},
		{
			"bufferView":62,
			"componentType":5123,
			"count":807,
			"type":"SCALAR"
		},
		{
			"bufferView":63,
			"componentType":5126,
			"count":1088,
			"max":[
				23.44268035888672,
				111.54083251953125,
				12.401683807373047
			],
			"min":[
				0.03802797943353653,
				6.704442501068115,
				-2.1654653549194336
			],
			"type":"VEC3"
		},
		{
			"bufferView":64,
			"componentType":5126,
			"count":1088,
			"type":"VEC3"
		},
		{
			"bufferView":65,
			"componentType":5126,
			"count":1088,
			"type":"VEC2"
		},
		{
			"bufferView":66,
			"componentType":5126,
			"count":1088,
			"type":"VEC2"
		},
		{
			"bufferView":67,
			"componentType":5123,
			"count":6069,
			"type":"SCALAR"
		},
		{
			"bufferView":68,
			"componentType":5126,
			"count":1075,
			"max":[
				0.24965059757232666,
				111.76619720458984,
				12.21472454071045
			],
			"min":[
				-23.8216495513916,
				6.445730686187744,
				-1.954358458518982
			],
			"type":"VEC3"
		},
		{
			"bufferView":69,
			"componentType":5126,
			"count":1075,
			"type":"VEC3"
		},
		{
			"bufferView":70,
			"componentType":5126,
			"count":1075,
			"type":"VEC2"
		},
		{
			"bufferView":71,
			"componentType":5126,
			"count":1075,
			"type":"VEC2"
		},
		{
			"bufferView":72,
			"componentType":5123,
			"count":5994,
			"type":"SCALAR"
		},
		{
			"bufferView":73,
			"componentType":5126,
			"count":159,
			"max":[
				-7.9387125968933105,
				112.05323791503906,
				11.27605152130127
			],
			"min":[
				-18.630937576293945,
				90.00279235839844,
				1.113368272781372
			],
			"type":"VEC3"
		},
		{
			"bufferView":74,
			"componentType":5126,
			"count":159,
			"type":"VEC3"
		},
		{
			"bufferView":75,
			"componentType":5126,
			"count":159,
			"type":"VEC2"
		},
		{
			"bufferView":76,
			"componentType":5126,
			"count":159,
			"type":"VEC2"
		},
		{
			"bufferView":77,
			"componentType":5123,
			"count":813,
			"type":"SCALAR"
		},
		{
			"bufferView":78,
			"componentType":5126,
			"count":64,
			"max":[
				12.795851707458496,
				108.50435638427734,
				-6.233322620391846
			],
			"min":[
				4.188531398773193,
				107.26158905029297,
				-10.43903636932373
			],
			"type":"VEC3"
		},
		{
			"bufferView":79,
			"componentType":5126,
			"count":64,
			"type":"VEC3"
		},
		{
			"bufferView":80,
			"componentType":5126,
			"count":64,
			"type":"VEC2"
		},
		{
			"bufferView":81,
			"componentType":5126,
			"count":64,
			"type":"VEC2"
		},
		{
			"bufferView":82,
			"componentType":5123,
			"count":246,
			"type":"SCALAR"
		},
		{
			"bufferView":83,
			"componentType":5126,
			"count":64,
			"max":[
				12.795851707458496,
				108.117919921875,
				-6.287303924560547
			],
			"min":[
				4.28790283203125,
				106.78486633300781,
				-10.572699546813965
			],
			"type":"VEC3"
		},
		{
			"bufferView":84,
			"componentType":5126,
			"count":64,
			"type":"VEC3"
		},
		{
			"bufferView":85,
			"componentType":5126,
			"count":64,
			"type":"VEC2"
		},
		{
			"bufferView":86,
			"componentType":5126,
			"count":64,
			"type":"VEC2"
		},
		{
			"bufferView":87,
			"componentType":5123,
			"count":246,
			"type":"SCALAR"
		},
		{
			"bufferView":88,
			"componentType":5126,
			"count":64,
			"max":[
				-4.4608845710754395,
				108.2583236694336,
				-6.108287334442139
			],
			"min":[
				-12.954048156738281,
				106.91411590576172,
				-10.52982234954834
			],
			"type":"VEC3"
		},
		{
			"bufferView":89,
			"componentType":5126,
			"count":64,
			"type":"VEC3"
		},
		{
			"bufferView":90,
			"componentType":5126,
			"count":64,
			"type":"VEC2"
		},
		{
			"bufferView":91,
			"componentType":5126,
			"count":64,
			"type":"VEC2"
		},
		{
			"bufferView":92,
			"componentType":5126,
			"count":64,
			"max":[
				-4.35124397277832,
				108.70814514160156,
				-6.0534987449646
			],
			"min":[
				-12.954048156738281,
				107.38700103759766,
				-10.400358200073242
			],
			"type":"VEC3"
		},
		{
			"bufferView":93,
			"componentType":5126,
			"count":64,
			"type":"VEC3"
		},
		{
			"bufferView":94,
			"componentType":5126,
			"count":64,
			"type":"VEC2"
		},
		{
			"bufferView":95,
			"componentType":5126,
			"count":64,
			"type":"VEC2"
		},
		{
			"bufferView":96,
			"componentType":5126,
			"count":1335,
			"max":[
				0.10288646072149277,
				112.91230773925781,
				3.6962649822235107
			],
			"min":[
				-23.565502166748047,
				5.778775215148926,
				-11.576712608337402
			],
			"type":"VEC3"
		},
		{
			"bufferView":97,
			"componentType":5126,
			"count":1335,
			"type":"VEC3"
		},
		{
			"bufferView":98,
			"componentType":5126,
			"count":1335,
			"type":"VEC2"
		},
		{
			"bufferView":99,
			"componentType":5126,
			"count":1335,
			"type":"VEC2"
		},
		{
			"bufferView":100,
			"componentType":5123,
			"count":7503,
			"type":"SCALAR"
		},
		{
			"bufferView":101,
			"componentType":5126,
			"count":1334,
			"max":[
				23.284732818603516,
				112.73986053466797,
				3.2921109199523926
			],
			"min":[
				-0.2257390022277832,
				5.814512729644775,
				-11.585848808288574
			],
			"type":"VEC3"
		},
		{
			"bufferView":102,
			"componentType":5126,
			"count":1334,
			"type":"VEC3"
		},
		{
			"bufferView":103,
			"componentType":5126,
			"count":1334,
			"type":"VEC2"
		},
		{
			"bufferView":104,
			"componentType":5126,
			"count":1334,
			"type":"VEC2"
		},
		{
			"bufferView":105,
			"componentType":5123,
			"count":7497,
			"type":"SCALAR"
		},
		{
			"bufferView":106,
			"componentType":5126,
			"count":349,
			"max":[
				0.13894419372081757,
				116.9198989868164,
				13.01075267791748
			],
			"min":[
				-15.421401023864746,
				109.69062805175781,
				-8.6174955368042
			],
			"type":"VEC3"
		},
		{
			"bufferView":107,
			"componentType":5126,
			"count":349,
			"type":"VEC3"
		},
		{
			"bufferView":108,
			"componentType":5126,
			"count":349,
			"type":"VEC2"
		},
		{
			"bufferView":109,
			"componentType":5126,
			"count":349,
			"type":"VEC2"
		},
		{
			"bufferView":110,
			"componentType":5123,
			"count":1803,
			"type":"SCALAR"
		},
		{
			"bufferView":111,
			"componentType":5126,
			"count":358,
			"max":[
				15.462457656860352,
				116.7558822631836,
				13.01756477355957
			],
			"min":[
				-0.07050889730453491,
				109.69062805175781,
				-8.635168075561523
			],
			"type":"VEC3"
		},
		{
			"bufferView":112,
			"componentType":5126,
			"count":358,
			"type":"VEC3"
		},
		{
			"bufferView":113,
			"componentType":5126,
			"count":358,
			"type":"VEC2"
		},
		{
			"bufferView":114,
			"componentType":5126,
			"count":358,
			"type":"VEC2"
		},
		{
			"bufferView":115,
			"componentType":5123,
			"count":1854,
			"type":"SCALAR"
		}
	],
	"bufferViews":[
		{
			"buffer":0,
			"byteLength":1488,
			"byteOffset":0,
			"target":34962
		},
		{
			"buffer":0,
			"byteLength":1488,
			"byteOffset":1488,
			"target":34962
		},
		{
			"buffer":0,
			"byteLength":992,
			"byteOffset":2976,
			"target":34962
		},
		{
			"buffer":0,
			"byteLength":984,
			"byteOffset":3968,
			"target":34963
		},
		{
			"buffer":0,
			"byteLength":762792,
			"byteOffset":4952,
			"target":34962
		},
		{
			"buffer":0,
			"byteLength":762792,
			"byteOffset":767744,
			"target":34962
		},
		{
			"buffer":0,
			"byteLength":508528,
			"byteOffset":1530536,
			"target":34962
		},
		{
			"buffer":0,
			"byteLength":559200,
			"byteOffset":2039064,
			"target":34963
		},
		{
			"buffer":0,
			"byteLength":267840,
			"byteOffset":2598264,
			"target":34962
		},
		{
			"buffer":0,
			"byteLength":267840,
			"byteOffset":2866104,
			"target":34962
		},
		{
			"buffer":0,
			"byteLength":178560,
			"byteOffset":3133944,
			"target":34962
		},
		{
			"buffer":0,
			"byteLength":264804,
			"byteOffset":3312504,
			"target":34963
		},
		{
			"buffer":0,
			"byteLength":267840,
			"byteOffset":3577308,
			"target":34962
		},
		{
			"buffer":0,
			"byteLength":267840,
			"byteOffset":3845148,
			"target":34962
		},
		{
			"buffer":0,
			"byteLength":178560,
			"byteOffset":4112988,
			"target":34962
		},
		{
			"buffer":0,
			"byteLength":264804,
			"byteOffset":4291548,
			"target":34963
		},
		{
			"buffer":0,
			"byteLength":44340,
			"byteOffset":4556352,
			"target":34962
		},
		{
			"buffer":0,
			"byteLength":44340,
			"byteOffset":4600692,
			"target":34962
		},
		{
			"buffer":0,
			"byteLength":29560,
			"byteOffset":4645032,
			"target":34962
		},
		{
			"buffer":0,
			"byteLength":36288,
			"byteOffset":4674592,
			"target":34963
		},
		{
			"buffer":0,
			"byteLength":291216,
			"byteOffset":4710880,
			"target":34962
		},
		{
			"buffer":0,
			"byteLength":291216,
			"byteOffset":5002096,
			"target":34962
		},
		{
			"buffer":0,
			"byteLength":194144,
			"byteOffset":5293312,
			"target":34962
		},
		{
			"buffer":0,
			"byteLength":288252,
			"byteOffset":5487456,
			"target":34963
		},
		{
			"buffer":0,
			"byteLength":291216,
			"byteOffset":5775708,
			"target":34962
		},
		{
			"buffer":0,
			"byteLength":291216,
			"byteOffset":6066924,
			"target":34962
		},
		{
			"buffer":0,
			"byteLength":194144,
			"byteOffset":6358140,
			"target":34962
		},
		{
			"buffer":0,
			"byteLength":288252,
			"byteOffset":6552284,
			"target":34963
		},
		{
			"buffer":0,
			"byteLength":42504,
			"byteOffset":6840536,
			"target":34962
		},
		{
			"buffer":0,
			"byteLength":42504,
			"byteOffset":6883040,
			"target":34962
		},
		{
			"buffer":0,
			"byteLength":28336,
			"byteOffset":6925544,
			"target":34962
		},
		{
			"buffer":0,
			"byteLength":35424,
			"byteOffset":6953880,
			"target":34963
		},
		{
			"buffer":0,
			"byteLength":116148,
			"byteOffset":6989304,
			"target":34962
		},
		{
			"buffer":0,
			"byteLength":116148,
			"byteOffset":7105452,
			"target":34962
		},
		{
			"buffer":0,
			"byteLength":77432,
			"byteOffset":7221600,
			"target":34962
		},
		{
			"buffer":0,
			"byteLength":110808,
			"byteOffset":7299032,
			"target":34963
		},
		{
			"buffer":0,
			"byteLength":115620,
			"byteOffset":7409840,
			"target":34962
		},
		{
			"buffer":0,
			"byteLength":115620,
			"byteOffset":7525460,
			"target":34962
		},
		{
			"buffer":0,
			"byteLength":77080,
			"byteOffset":7641080,
			"target":34962
		},
		{
			"buffer":0,
			"byteLength":110280,
			"byteOffset":7718160,
			"target":34963
		},
		{
			"buffer":0,
			"byteLength":14772,
			"byteOffset":7828440,
			"target":34962
		},
		{
			"buffer":0,
			"byteLength":14772,
			"byteOffset":7843212,
			"target":34962
		},
		{
			"buffer":0,
			"byteLength":9848,
			"byteOffset":7857984,
			"target":34962
		},
		{
			"buffer":0,
			"byteLength":12072,
			"byteOffset":7867832,
			"target":34963
		},
		{
			"buffer":0,
			"byteLength":20184,
			"byteOffset":7879904,
			"target":34962
		},
		{
			"buffer":0,
			"byteLength":20184,
			"byteOffset":7900088,
			"target":34962
		},
		{
			"buffer":0,
			"byteLength":13456,
			"byteOffset":7920272,
			"target":34962
		},
		{
			"buffer":0,
			"byteLength":16644,
			"byteOffset":7933728,
			"target":34963
		},
		{
			"buffer":0,
			"byteLength":1428,
			"byteOffset":7950372,
			"target":34962
		},
		{
			"buffer":0,
			"byteLength":1428,
			"byteOffset":7951800,
			"target":34962
		},
		{
			"buffer":0,
			"byteLength":952,
			"byteOffset":7953228,
			"target":34962
		},
		{
			"buffer":0,
			"byteLength":952,
			"byteOffset":7954180,
			"target":34962
		},
		{
			"buffer":0,
			"byteLength":1182,
			"byteOffset":7955132,
			"target":34963
		},
		{
			"buffer":0,
			"byteLength":1428,
			"byteOffset":7956316,
			"target":34962
		},
		{
			"buffer":0,
			"byteLength":1428,
			"byteOffset":7957744,
			"target":34962
		},
		{
			"buffer":0,
			"byteLength":952,
			"byteOffset":7959172,
			"target":34962
		},
		{
			"buffer":0,
			"byteLength":952,
			"byteOffset":7960124,
			"target":34962
		},
		{
			"buffer":0,
			"byteLength":1182,
			"byteOffset":7961076,
			"target":34963
		},
		{
			"buffer":0,
			"byteLength":1896,
			"byteOffset":7962260,
			"target":34962
		},
		{
			"buffer":0,
			"byteLength":1896,
			"byteOffset":7964156,
			"target":34962
		},
		{
			"buffer":0,
			"byteLength":1264,
			"byteOffset":7966052,
			"target":34962
		},
		{
			"buffer":0,
			"byteLength":1264,
			"byteOffset":7967316,
			"target":34962
		},
		{
			"buffer":0,
			"byteLength":1614,
			"byteOffset":7968580,
			"target":34963
		},
		{
			"buffer":0,
			"byteLength":13056,
			"byteOffset":7970196,
			"target":34962
		},
		{
			"buffer":0,
			"byteLength":13056,
			"byteOffset":7983252,
			"target":34962
		},
		{
			"buffer":0,
			"byteLength":8704,
			"byteOffset":7996308,
			"target":34962
		},
		{
			"buffer":0,
			"byteLength":8704,
			"byteOffset":8005012,
			"target":34962
		},
		{
			"buffer":0,
			"byteLength":12138,
			"byteOffset":8013716,
			"target":34963
		},
		{
			"buffer":0,
			"byteLength":12900,
			"byteOffset":8025856,
			"target":34962
		},
		{
			"buffer":0,
			"byteLength":12900,
			"byteOffset":8038756,
			"target":34962
		},
		{
			"buffer":0,
			"byteLength":8600,
			"byteOffset":8051656,
			"target":34962
		},
		{
			"buffer":0,
			"byteLength":8600,
			"byteOffset":8060256,
			"target":34962
		},
		{
			"buffer":0,
			"byteLength":11988,
			"byteOffset":8068856,
			"target":34963
		},
		{
			"buffer":0,
			"byteLength":1908,
			"byteOffset":8080844,
			"target":34962
		},
		{
			"buffer":0,
			"byteLength":1908,
			"byteOffset":8082752,
			"target":34962
		},
		{
			"buffer":0,
			"byteLength":1272,
			"byteOffset":8084660,
			"target":34962
		},
		{
			"buffer":0,
			"byteLength":1272,
			"byteOffset":8085932,
			"target":34962
		},
		{
			"buffer":0,
			"byteLength":1626,
			"byteOffset":8087204,
			"target":34963
		},
		{
			"buffer":0,
			"byteLength":768,
			"byteOffset":8088832,
			"target":34962
		},
		{
			"buffer":0,
			"byteLength":768,
			"byteOffset":8089600,
			"target":34962
		},
		{
			"buffer":0,
			"byteLength":512,
			"byteOffset":8090368,
			"target":34962
		},
		{
			"buffer":0,
			"byteLength":512,
			"byteOffset":8090880,
			"target":34962
		},
		{
			"buffer":0,
			"byteLength":492,
			"byteOffset":8091392,
			"target":34963
		},
		{
			"buffer":0,
			"byteLength":768,
			"byteOffset":8091884,
			"target":34962
		},
		{
			"buffer":0,
			"byteLength":768,
			"byteOffset":8092652,
			"target":34962
		},
		{
			"buffer":0,
			"byteLength":512,
			"byteOffset":8093420,
			"target":34962
		},
		{
			"buffer":0,
			"byteLength":512,
			"byteOffset":8093932,
			"target":34962
		},
		{
			"buffer":0,
			"byteLength":492,
			"byteOffset":8094444,
			"target":34963
		},
		{
			"buffer":0,
			"byteLength":768,
			"byteOffset":8094936,
			"target":34962
		},
		{
			"buffer":0,
			"byteLength":768,
			"byteOffset":8095704,
			"target":34962
		},
		{
			"buffer":0,
			"byteLength":512,
			"byteOffset":8096472,
			"target":34962
		},
		{
			"buffer":0,
			"byteLength":512,
			"byteOffset":8096984,
			"target":34962
		},
		{
			"buffer":0,
			"byteLength":768,
			"byteOffset":8097496,
			"target":34962
		},
		{
			"buffer":0,
			"byteLength":768,
			"byteOffset":8098264,
			"target":34962
		},
		{
			"buffer":0,
			"byteLength":512,
			"byteOffset":8099032,
			"target":34962
		},
		{
			"buffer":0,
			"byteLength":512,
			"byteOffset":8099544,
			"target":34962
		},
		{
			"buffer":0,
			"byteLength":16020,
			"byteOffset":8100056,
			"target":34962
		},
		{
			"buffer":0,
			"byteLength":16020,
			"byteOffset":8116076,
			"target":34962
		},
		{
			"buffer":0,
			"byteLength":10680,
			"byteOffset":8132096,
			"target":34962
		},
		{
			"buffer":0,
			"byteLength":10680,
			"byteOffset":8142776,
			"target":34962
		},
		{
			"buffer":0,
			"byteLength":15006,
			"byteOffset":8153456,
			"target":34963
		},
		{
			"buffer":0,
			"byteLength":16008,
			"byteOffset":8168464,
			"target":34962
		},
		{
			"buffer":0,
			"byteLength":16008,
			"byteOffset":8184472,
			"target":34962
		},
		{
			"buffer":0,
			"byteLength":10672,
			"byteOffset":8200480,
			"target":34962
		},
		{
			"buffer":0,
			"byteLength":10672,
			"byteOffset":8211152,
			"target":34962
		},
		{
			"buffer":0,
			"byteLength":14994,
			"byteOffset":8221824,
			"target":34963
		},
		{
			"buffer":0,
			"byteLength":4188,
			"byteOffset":8236820,
			"target":34962
		},
		{
			"buffer":0,
			"byteLength":4188,
			"byteOffset":8241008,
			"target":34962
		},
		{
			"buffer":0,
			"byteLength":2792,
			"byteOffset":8245196,
			"target":34962
		},
		{
			"buffer":0,
			"byteLength":2792,
			"byteOffset":8247988,
			"target":34962
		},
		{
			"buffer":0,
			"byteLength":3606,
			"byteOffset":8250780,
			"target":34963
		},
		{
			"buffer":0,
			"byteLength":4296,
			"byteOffset":8254388,
			"target":34962
		},
		{
			"buffer":0,
			"byteLength":4296,
			"byteOffset":8258684,
			"target":34962
		},
		{
			"buffer":0,
			"byteLength":2864,
			"byteOffset":8262980,
			"target":34962
		},
		{
			"buffer":0,
			"byteLength":2864,
			"byteOffset":8265844,
			"target":34962
		},
		{
			"buffer":0,
			"byteLength":3708,
			"byteOffset":8268708,
			"target":34963
		}
	],
	"buffers":[
		{
			"byteLength":8272416,
			"uri":"Untitled.bin"
		}
	]
}
