{
	"asset":{
		"generator":"Khronos glTF Blender I/O v4.4.56",
		"version":"2.0"
	},
	"extensionsUsed":[
		"KHR_materials_specular"
	],
	"scene":0,
	"scenes":[
		{
			"name":"Scene",
			"nodes":[
				0
			]
		}
	],
	"nodes":[
		{
			"mesh":0,
			"name":"hands down_OBJ_0",
			"rotation":[
				0.7071068286895752,
				0,
				0,
				0.7071068286895752
			]
		}
	],
	"materials":[
		{
			"doubleSided":true,
			"extensions":{
				"KHR_materials_specular":{
					"specularFactor":0.15000000596046448
				}
			},
			"name":"Knit_Fleece_Terry_FRONT_2452",
			"normalTexture":{
				"index":0,
				"scale":0
			},
			"pbrMetallicRoughness":{
				"baseColorTexture":{
					"index":1
				},
				"metallicFactor":0,
				"roughnessFactor":0.8304027318954468
			}
		},
		{
			"doubleSided":true,
			"extensions":{
				"KHR_materials_specular":{
					"specularFactor":0.09000000357627869
				}
			},
			"name":"Rib_1X1_486gsm_FRONT_2463",
			"normalTexture":{
				"index":2,
				"scale":0
			},
			"pbrMetallicRoughness":{
				"baseColorTexture":{
					"index":3
				},
				"metallicFactor":0,
				"roughnessFactor":0.9004921913146973
			}
		},
		{
			"doubleSided":true,
			"extensions":{
				"KHR_materials_specular":{
					"specularFactor":0.15000000596046448
				}
			},
			"name":"Fabric249846_FRONT_6945",
			"normalTexture":{
				"index":4,
				"scale":0
			},
			"pbrMetallicRoughness":{
				"baseColorTexture":{
					"index":5
				},
				"metallicFactor":0,
				"roughnessFactor":0.8304027318954468
			}
		},
		{
			"doubleSided":true,
			"extensions":{
				"KHR_materials_specular":{
					"specularFactor":0.15000000596046448
				}
			},
			"name":"Fabric249846_SIDE_6945",
			"pbrMetallicRoughness":{
				"baseColorFactor":[
					0.8196079730987549,
					0.8196079730987549,
					0.8196079730987549,
					1
				],
				"metallicFactor":0,
				"roughnessFactor":0.8304027318954468
			}
		},
		{
			"doubleSided":true,
			"extensions":{
				"KHR_materials_specular":{
					"specularFactor":0.15000000596046448
				}
			},
			"name":"Cotton_Heavy_Canvas_FRONT_2475",
			"normalTexture":{
				"index":6,
				"scale":0
			},
			"pbrMetallicRoughness":{
				"baseColorTexture":{
					"index":7
				},
				"metallicFactor":0,
				"roughnessFactor":0.8304027318954468
			}
		},
		{
			"doubleSided":true,
			"extensions":{
				"KHR_materials_specular":{
					"specularColorFactor":[
						1.7999998331069946,
						1.7999998331069946,
						1.7999998331069946
					]
				}
			},
			"name":"Material2816632",
			"pbrMetallicRoughness":{
				"baseColorTexture":{
					"index":8
				},
				"metallicFactor":0,
				"roughnessFactor":0.6422290802001953
			}
		},
		{
			"doubleSided":true,
			"extensions":{
				"KHR_materials_specular":{
					"specularColorFactor":[
						1.7999998331069946,
						1.7999998331069946,
						1.7999998331069946
					]
				}
			},
			"name":"Material2816644",
			"pbrMetallicRoughness":{
				"baseColorTexture":{
					"index":9
				},
				"metallicFactor":0,
				"roughnessFactor":0.6422290802001953
			}
		},
		{
			"doubleSided":true,
			"extensions":{
				"KHR_materials_specular":{
					"specularColorFactor":[
						1.7999998331069946,
						1.7999998331069946,
						1.7999998331069946
					]
				}
			},
			"name":"Material249697",
			"pbrMetallicRoughness":{
				"baseColorTexture":{
					"index":10
				},
				"metallicFactor":0,
				"roughnessFactor":0.6422290802001953
			}
		},
		{
			"doubleSided":true,
			"extensions":{
				"KHR_materials_specular":{
					"specularColorFactor":[
						1.7999998331069946,
						1.7999998331069946,
						1.7999998331069946
					]
				}
			},
			"name":"Material249861",
			"pbrMetallicRoughness":{
				"baseColorTexture":{
					"index":11
				},
				"metallicFactor":0,
				"roughnessFactor":0.6422290802001953
			}
		},
		{
			"doubleSided":true,
			"extensions":{
				"KHR_materials_specular":{
					"specularColorFactor":[
						1.7999998331069946,
						1.7999998331069946,
						1.7999998331069946
					]
				}
			},
			"name":"Material249863",
			"pbrMetallicRoughness":{
				"baseColorTexture":{
					"index":12
				},
				"metallicFactor":0,
				"roughnessFactor":0.6422290802001953
			}
		},
		{
			"doubleSided":true,
			"extensions":{
				"KHR_materials_specular":{
					"specularColorFactor":[
						1.7999998331069946,
						1.7999998331069946,
						1.7999998331069946
					]
				}
			},
			"name":"Material249865",
			"pbrMetallicRoughness":{
				"baseColorTexture":{
					"index":13
				},
				"metallicFactor":0,
				"roughnessFactor":0.6422290802001953
			}
		}
	],
	"meshes":[
		{
			"name":"hands down_OBJ_0",
			"primitives":[
				{
					"attributes":{
						"POSITION":0,
						"NORMAL":1,
						"TEXCOORD_0":2
					},
					"indices":3,
					"material":0
				},
				{
					"attributes":{
						"POSITION":4,
						"NORMAL":5,
						"TEXCOORD_0":6
					},
					"indices":7,
					"material":1
				},
				{
					"attributes":{
						"POSITION":8,
						"NORMAL":9,
						"TEXCOORD_0":10
					},
					"indices":11,
					"material":2
				},
				{
					"attributes":{
						"POSITION":12,
						"NORMAL":13,
						"TEXCOORD_0":14
					},
					"indices":15,
					"material":3
				},
				{
					"attributes":{
						"POSITION":16,
						"NORMAL":17,
						"TEXCOORD_0":18
					},
					"indices":19,
					"material":4
				},
				{
					"attributes":{
						"POSITION":20,
						"NORMAL":21,
						"TEXCOORD_0":22
					},
					"indices":23,
					"material":5
				},
				{
					"attributes":{
						"POSITION":24,
						"NORMAL":25,
						"TEXCOORD_0":26
					},
					"indices":23,
					"material":6
				},
				{
					"attributes":{
						"POSITION":27,
						"NORMAL":28,
						"TEXCOORD_0":29
					},
					"indices":30,
					"material":7
				},
				{
					"attributes":{
						"POSITION":31,
						"NORMAL":32,
						"TEXCOORD_0":33
					},
					"indices":34,
					"material":8
				},
				{
					"attributes":{
						"POSITION":35,
						"NORMAL":36,
						"TEXCOORD_0":37
					},
					"indices":38,
					"material":9
				},
				{
					"attributes":{
						"POSITION":39,
						"NORMAL":40,
						"TEXCOORD_0":41
					},
					"indices":42,
					"material":10
				}
			]
		}
	],
	"textures":[
		{
			"sampler":0,
			"source":0
		},
		{
			"sampler":0,
			"source":1
		},
		{
			"sampler":0,
			"source":0
		},
		{
			"sampler":0,
			"source":1
		},
		{
			"sampler":0,
			"source":0
		},
		{
			"sampler":0,
			"source":1
		},
		{
			"sampler":0,
			"source":0
		},
		{
			"sampler":0,
			"source":1
		},
		{
			"sampler":0,
			"source":1
		},
		{
			"sampler":0,
			"source":1
		},
		{
			"sampler":0,
			"source":1
		},
		{
			"sampler":0,
			"source":1
		},
		{
			"sampler":0,
			"source":1
		},
		{
			"sampler":0,
			"source":1
		}
	],
	"images":[
		{
			"mimeType":"image/png",
			"name":"hands down_OBJ_0_normal_1001",
			"uri":"hands%20down_OBJ_0_normal_1001.png"
		},
		{
			"mimeType":"image/png",
			"name":"hands down_OBJ_0_diffuse_1001",
			"uri":"hands%20down_OBJ_0_diffuse_1001.png"
		}
	],
	"accessors":[
		{
			"bufferView":0,
			"componentType":5126,
			"count":202626,
			"max":[
				30.454975128173828,
				14.605036735534668,
				-97.31657409667969
			],
			"min":[
				-31.199323654174805,
				-17.37895965576172,
				-190.11700439453125
			],
			"type":"VEC3"
		},
		{
			"bufferView":1,
			"componentType":5126,
			"count":202626,
			"type":"VEC3"
		},
		{
			"bufferView":2,
			"componentType":5126,
			"count":202626,
			"type":"VEC2"
		},
		{
			"bufferView":3,
			"componentType":5125,
			"count":1180374,
			"type":"SCALAR"
		},
		{
			"bufferView":4,
			"componentType":5126,
			"count":19321,
			"max":[
				29.786901473999023,
				12.70917797088623,
				-92.49629974365234
			],
			"min":[
				-30.499258041381836,
				-12.851997375488281,
				-110.12117767333984
			],
			"type":"VEC3"
		},
		{
			"bufferView":5,
			"componentType":5126,
			"count":19321,
			"type":"VEC3"
		},
		{
			"bufferView":6,
			"componentType":5126,
			"count":19321,
			"type":"VEC2"
		},
		{
			"bufferView":7,
			"componentType":5123,
			"count":107142,
			"type":"SCALAR"
		},
		{
			"bufferView":8,
			"componentType":5126,
			"count":580,
			"max":[
				1.2252509593963623,
				13.791714668273926,
				-102.57521057128906
			],
			"min":[
				-0.4423919916152954,
				4.391979217529297,
				-157.8373565673828
			],
			"type":"VEC3"
		},
		{
			"bufferView":9,
			"componentType":5126,
			"count":580,
			"type":"VEC3"
		},
		{
			"bufferView":10,
			"componentType":5126,
			"count":580,
			"type":"VEC2"
		},
		{
			"bufferView":11,
			"componentType":5123,
			"count":1716,
			"type":"SCALAR"
		},
		{
			"bufferView":12,
			"componentType":5126,
			"count":2086,
			"max":[
				1.2252509593963623,
				13.791714668273926,
				-102.57521057128906
			],
			"min":[
				-0.4423919916152954,
				4.391979217529297,
				-157.8373565673828
			],
			"type":"VEC3"
		},
		{
			"bufferView":13,
			"componentType":5126,
			"count":2086,
			"type":"VEC3"
		},
		{
			"bufferView":14,
			"componentType":5126,
			"count":2086,
			"type":"VEC2"
		},
		{
			"bufferView":15,
			"componentType":5123,
			"count":10440,
			"type":"SCALAR"
		},
		{
			"bufferView":16,
			"componentType":5126,
			"count":1994,
			"max":[
				3.9575250148773193,
				10.006526947021484,
				-145.1371612548828
			],
			"min":[
				-3.8224968910217285,
				3.508660078048706,
				-159.2080535888672
			],
			"type":"VEC3"
		},
		{
			"bufferView":17,
			"componentType":5126,
			"count":1994,
			"type":"VEC3"
		},
		{
			"bufferView":18,
			"componentType":5126,
			"count":1994,
			"type":"VEC2"
		},
		{
			"bufferView":19,
			"componentType":5123,
			"count":9804,
			"type":"SCALAR"
		},
		{
			"bufferView":20,
			"componentType":5126,
			"count":460,
			"max":[
				-2.4357690811157227,
				10.117820739746094,
				-144.8993377685547
			],
			"min":[
				-2.980483055114746,
				9.422639846801758,
				-146.16000366210938
			],
			"type":"VEC3"
		},
		{
			"bufferView":21,
			"componentType":5126,
			"count":460,
			"type":"VEC3"
		},
		{
			"bufferView":22,
			"componentType":5126,
			"count":460,
			"type":"VEC2"
		},
		{
			"bufferView":23,
			"componentType":5123,
			"count":2304,
			"type":"SCALAR"
		},
		{
			"bufferView":24,
			"componentType":5126,
			"count":460,
			"max":[
				2.7287580966949463,
				9.89067554473877,
				-144.9547119140625
			],
			"min":[
				2.197624921798706,
				9.092780113220215,
				-146.23019409179688
			],
			"type":"VEC3"
		},
		{
			"bufferView":25,
			"componentType":5126,
			"count":460,
			"type":"VEC3"
		},
		{
			"bufferView":26,
			"componentType":5126,
			"count":460,
			"type":"VEC2"
		},
		{
			"bufferView":27,
			"componentType":5126,
			"count":500,
			"max":[
				0.5263180136680603,
				5.183256149291992,
				-156.73452758789062
			],
			"min":[
				-0.31894999742507935,
				4.235710144042969,
				-157.8846893310547
			],
			"type":"VEC3"
		},
		{
			"bufferView":28,
			"componentType":5126,
			"count":500,
			"type":"VEC3"
		},
		{
			"bufferView":29,
			"componentType":5126,
			"count":500,
			"type":"VEC2"
		},
		{
			"bufferView":30,
			"componentType":5123,
			"count":2472,
			"type":"SCALAR"
		},
		{
			"bufferView":31,
			"componentType":5126,
			"count":658,
			"max":[
				0.5685250163078308,
				5.582728862762451,
				-155.74591064453125
			],
			"min":[
				-0.3386099934577942,
				4.931727886199951,
				-157.2285919189453
			],
			"type":"VEC3"
		},
		{
			"bufferView":32,
			"componentType":5126,
			"count":658,
			"type":"VEC3"
		},
		{
			"bufferView":33,
			"componentType":5126,
			"count":658,
			"type":"VEC2"
		},
		{
			"bufferView":34,
			"componentType":5123,
			"count":3480,
			"type":"SCALAR"
		},
		{
			"bufferView":35,
			"componentType":5126,
			"count":1992,
			"max":[
				0.15955300629138947,
				4.627462863922119,
				-157.47874450683594
			],
			"min":[
				-0.11114499717950821,
				4.334764003753662,
				-157.86007690429688
			],
			"type":"VEC3"
		},
		{
			"bufferView":36,
			"componentType":5126,
			"count":1992,
			"type":"VEC3"
		},
		{
			"bufferView":37,
			"componentType":5126,
			"count":1992,
			"type":"VEC2"
		},
		{
			"bufferView":38,
			"componentType":5123,
			"count":4680,
			"type":"SCALAR"
		},
		{
			"bufferView":39,
			"componentType":5126,
			"count":1681,
			"max":[
				0.8830789923667908,
				12.059111595153809,
				-102.54476165771484
			],
			"min":[
				0.3855850100517273,
				11.805811882019043,
				-103.30684661865234
			],
			"type":"VEC3"
		},
		{
			"bufferView":40,
			"componentType":5126,
			"count":1681,
			"type":"VEC3"
		},
		{
			"bufferView":41,
			"componentType":5126,
			"count":1681,
			"type":"VEC2"
		},
		{
			"bufferView":42,
			"componentType":5123,
			"count":7866,
			"type":"SCALAR"
		}
	],
	"bufferViews":[
		{
			"buffer":0,
			"byteLength":2431512,
			"byteOffset":0,
			"target":34962
		},
		{
			"buffer":0,
			"byteLength":2431512,
			"byteOffset":2431512,
			"target":34962
		},
		{
			"buffer":0,
			"byteLength":1621008,
			"byteOffset":4863024,
			"target":34962
		},
		{
			"buffer":0,
			"byteLength":4721496,
			"byteOffset":6484032,
			"target":34963
		},
		{
			"buffer":0,
			"byteLength":231852,
			"byteOffset":11205528,
			"target":34962
		},
		{
			"buffer":0,
			"byteLength":231852,
			"byteOffset":11437380,
			"target":34962
		},
		{
			"buffer":0,
			"byteLength":154568,
			"byteOffset":11669232,
			"target":34962
		},
		{
			"buffer":0,
			"byteLength":214284,
			"byteOffset":11823800,
			"target":34963
		},
		{
			"buffer":0,
			"byteLength":6960,
			"byteOffset":12038084,
			"target":34962
		},
		{
			"buffer":0,
			"byteLength":6960,
			"byteOffset":12045044,
			"target":34962
		},
		{
			"buffer":0,
			"byteLength":4640,
			"byteOffset":12052004,
			"target":34962
		},
		{
			"buffer":0,
			"byteLength":3432,
			"byteOffset":12056644,
			"target":34963
		},
		{
			"buffer":0,
			"byteLength":25032,
			"byteOffset":12060076,
			"target":34962
		},
		{
			"buffer":0,
			"byteLength":25032,
			"byteOffset":12085108,
			"target":34962
		},
		{
			"buffer":0,
			"byteLength":16688,
			"byteOffset":12110140,
			"target":34962
		},
		{
			"buffer":0,
			"byteLength":20880,
			"byteOffset":12126828,
			"target":34963
		},
		{
			"buffer":0,
			"byteLength":23928,
			"byteOffset":12147708,
			"target":34962
		},
		{
			"buffer":0,
			"byteLength":23928,
			"byteOffset":12171636,
			"target":34962
		},
		{
			"buffer":0,
			"byteLength":15952,
			"byteOffset":12195564,
			"target":34962
		},
		{
			"buffer":0,
			"byteLength":19608,
			"byteOffset":12211516,
			"target":34963
		},
		{
			"buffer":0,
			"byteLength":5520,
			"byteOffset":12231124,
			"target":34962
		},
		{
			"buffer":0,
			"byteLength":5520,
			"byteOffset":12236644,
			"target":34962
		},
		{
			"buffer":0,
			"byteLength":3680,
			"byteOffset":12242164,
			"target":34962
		},
		{
			"buffer":0,
			"byteLength":4608,
			"byteOffset":12245844,
			"target":34963
		},
		{
			"buffer":0,
			"byteLength":5520,
			"byteOffset":12250452,
			"target":34962
		},
		{
			"buffer":0,
			"byteLength":5520,
			"byteOffset":12255972,
			"target":34962
		},
		{
			"buffer":0,
			"byteLength":3680,
			"byteOffset":12261492,
			"target":34962
		},
		{
			"buffer":0,
			"byteLength":6000,
			"byteOffset":12265172,
			"target":34962
		},
		{
			"buffer":0,
			"byteLength":6000,
			"byteOffset":12271172,
			"target":34962
		},
		{
			"buffer":0,
			"byteLength":4000,
			"byteOffset":12277172,
			"target":34962
		},
		{
			"buffer":0,
			"byteLength":4944,
			"byteOffset":12281172,
			"target":34963
		},
		{
			"buffer":0,
			"byteLength":7896,
			"byteOffset":12286116,
			"target":34962
		},
		{
			"buffer":0,
			"byteLength":7896,
			"byteOffset":12294012,
			"target":34962
		},
		{
			"buffer":0,
			"byteLength":5264,
			"byteOffset":12301908,
			"target":34962
		},
		{
			"buffer":0,
			"byteLength":6960,
			"byteOffset":12307172,
			"target":34963
		},
		{
			"buffer":0,
			"byteLength":23904,
			"byteOffset":12314132,
			"target":34962
		},
		{
			"buffer":0,
			"byteLength":23904,
			"byteOffset":12338036,
			"target":34962
		},
		{
			"buffer":0,
			"byteLength":15936,
			"byteOffset":12361940,
			"target":34962
		},
		{
			"buffer":0,
			"byteLength":9360,
			"byteOffset":12377876,
			"target":34963
		},
		{
			"buffer":0,
			"byteLength":20172,
			"byteOffset":12387236,
			"target":34962
		},
		{
			"buffer":0,
			"byteLength":20172,
			"byteOffset":12407408,
			"target":34962
		},
		{
			"buffer":0,
			"byteLength":13448,
			"byteOffset":12427580,
			"target":34962
		},
		{
			"buffer":0,
			"byteLength":15732,
			"byteOffset":12441028,
			"target":34963
		}
	],
	"samplers":[
		{
			"magFilter":9729,
			"minFilter":9987
		}
	],
	"buffers":[
		{
			"byteLength":12456760,
			"uri":"Hoodie_Model.bin"
		}
	]
}
