{
	"asset":{
		"generator":"Khronos glTF Blender I/O v4.4.56",
		"version":"2.0"
	},
	"extensionsUsed":[
		"KHR_materials_specular"
	],
	"scene":0,
	"scenes":[
		{
			"name":"Scene",
			"nodes":[
				0,
				1
			]
		}
	],
	"nodes":[
		{
			"mesh":0,
			"name":"Cube"
		},
		{
			"mesh":1,
			"name":"handsdown_OBJ",
			"rotation":[
				0.7071068286895752,
				0,
				0,
				0.7071068286895752
			]
		}
	],
	"materials":[
		{
			"doubleSided":true,
			"name":"Material",
			"pbrMetallicRoughness":{
				"baseColorFactor":[
					0.800000011920929,
					0.800000011920929,
					0.800000011920929,
					1
				],
				"metallicFactor":0,
				"roughnessFactor":0.5
			}
		},
		{
			"doubleSided":true,
			"extensions":{
				"KHR_materials_specular":{
					"specularFactor":0.15000000596046448
				}
			},
			"name":"Knit_Fleece_Terry_FRONT_2460",
			"normalTexture":{
				"index":0,
				"scale":0
			},
			"pbrMetallicRoughness":{
				"baseColorTexture":{
					"index":1
				},
				"metallicFactor":0,
				"roughnessFactor":0.8304027318954468
			}
		},
		{
			"doubleSided":true,
			"extensions":{
				"KHR_materials_specular":{
					"specularFactor":0.09000000357627869
				}
			},
			"name":"Rib_1X1_486gsm_FRONT_2471",
			"normalTexture":{
				"index":2,
				"scale":0
			},
			"pbrMetallicRoughness":{
				"baseColorTexture":{
					"index":3
				},
				"metallicFactor":0,
				"roughnessFactor":0.9004921913146973
			}
		}
	],
	"meshes":[
		{
			"name":"Cube",
			"primitives":[
				{
					"attributes":{
						"POSITION":0,
						"NORMAL":1,
						"TEXCOORD_0":2
					},
					"indices":3,
					"material":0
				}
			]
		},
		{
			"name":"handsdown_OBJ",
			"primitives":[
				{
					"attributes":{
						"POSITION":4,
						"NORMAL":5,
						"TEXCOORD_0":6
					},
					"indices":7,
					"material":1
				},
				{
					"attributes":{
						"POSITION":8,
						"NORMAL":9,
						"TEXCOORD_0":10
					},
					"indices":11,
					"material":2
				}
			]
		}
	],
	"textures":[
		{
			"sampler":0,
			"source":0
		},
		{
			"sampler":0,
			"source":1
		},
		{
			"sampler":0,
			"source":0
		},
		{
			"sampler":0,
			"source":1
		}
	],
	"images":[
		{
			"mimeType":"image/png",
			"name":"handsdown_OBJ_normal_1001",
			"uri":"handsdown_OBJ_normal_1001.png"
		},
		{
			"mimeType":"image/png",
			"name":"handsdown_OBJ_diffuse_1001",
			"uri":"handsdown_OBJ_diffuse_1001.png"
		}
	],
	"accessors":[
		{
			"bufferView":0,
			"componentType":5126,
			"count":24,
			"max":[
				1,
				1,
				1
			],
			"min":[
				-1,
				-1,
				-1
			],
			"type":"VEC3"
		},
		{
			"bufferView":1,
			"componentType":5126,
			"count":24,
			"type":"VEC3"
		},
		{
			"bufferView":2,
			"componentType":5126,
			"count":24,
			"type":"VEC2"
		},
		{
			"bufferView":3,
			"componentType":5123,
			"count":36,
			"type":"SCALAR"
		},
		{
			"bufferView":4,
			"componentType":5126,
			"count":165100,
			"max":[
				30.629623413085938,
				16.925912857055664,
				-97.27268981933594
			],
			"min":[
				-31.15268325805664,
				-16.898883819580078,
				-163.2906494140625
			],
			"type":"VEC3"
		},
		{
			"bufferView":5,
			"componentType":5126,
			"count":165100,
			"type":"VEC3"
		},
		{
			"bufferView":6,
			"componentType":5126,
			"count":165100,
			"type":"VEC2"
		},
		{
			"bufferView":7,
			"componentType":5125,
			"count":967140,
			"type":"SCALAR"
		},
		{
			"bufferView":8,
			"componentType":5126,
			"count":25155,
			"max":[
				29.804950714111328,
				13.027626037597656,
				-92.4245834350586
			],
			"min":[
				-30.566680908203125,
				-11.597819328308105,
				-164.71412658691406
			],
			"type":"VEC3"
		},
		{
			"bufferView":9,
			"componentType":5126,
			"count":25155,
			"type":"VEC3"
		},
		{
			"bufferView":10,
			"componentType":5126,
			"count":25155,
			"type":"VEC2"
		},
		{
			"bufferView":11,
			"componentType":5123,
			"count":138210,
			"type":"SCALAR"
		}
	],
	"bufferViews":[
		{
			"buffer":0,
			"byteLength":288,
			"byteOffset":0,
			"target":34962
		},
		{
			"buffer":0,
			"byteLength":288,
			"byteOffset":288,
			"target":34962
		},
		{
			"buffer":0,
			"byteLength":192,
			"byteOffset":576,
			"target":34962
		},
		{
			"buffer":0,
			"byteLength":72,
			"byteOffset":768,
			"target":34963
		},
		{
			"buffer":0,
			"byteLength":1981200,
			"byteOffset":840,
			"target":34962
		},
		{
			"buffer":0,
			"byteLength":1981200,
			"byteOffset":1982040,
			"target":34962
		},
		{
			"buffer":0,
			"byteLength":1320800,
			"byteOffset":3963240,
			"target":34962
		},
		{
			"buffer":0,
			"byteLength":3868560,
			"byteOffset":5284040,
			"target":34963
		},
		{
			"buffer":0,
			"byteLength":301860,
			"byteOffset":9152600,
			"target":34962
		},
		{
			"buffer":0,
			"byteLength":301860,
			"byteOffset":9454460,
			"target":34962
		},
		{
			"buffer":0,
			"byteLength":201240,
			"byteOffset":9756320,
			"target":34962
		},
		{
			"buffer":0,
			"byteLength":276420,
			"byteOffset":9957560,
			"target":34963
		}
	],
	"samplers":[
		{
			"magFilter":9729,
			"minFilter":9987
		}
	],
	"buffers":[
		{
			"byteLength":10233980,
			"uri":"Untitled.bin"
		}
	]
}
