{
	"asset":{
		"generator":"Khronos glTF Blender I/O v4.4.56",
		"version":"2.0"
	},
	"scene":0,
	"scenes":[
		{
			"name":"Scene",
			"nodes":[
				0
			]
		}
	],
	"nodes":[
		{
			"mesh":0,
			"name":"Shirt ",
			"rotation":[
				0.7071070671081543,
				0,
				0,
				0.7071065306663513
			],
			"scale":[
				0.009634547866880894,
				0.009634546004235744,
				0.009634546004235744
			]
		}
	],
	"materials":[
		{
			"name":"Front.008",
			"pbrMetallicRoughness":{
				"metallicFactor":0,
				"roughnessFactor":2
			}
		},
		{
			"name":"Sleeve_Right.007",
			"pbrMetallicRoughness":{
				"metallicFactor":0,
				"roughnessFactor":2
			}
		},
		{
			"name":"Sleeve_Left.007",
			"pbrMetallicRoughness":{
				"metallicFactor":0,
				"roughnessFactor":2
			}
		},
		{
			"name":"Back.007",
			"pbrMetallicRoughness":{
				"metallicFactor":0,
				"roughnessFactor":2
			}
		},
		{
			"name":"Cuffs_Boundry.007",
			"pbrMetallicRoughness":{
				"metallicFactor":0,
				"roughnessFactor":2
			}
		},
		{
			"name":"Bottons.007",
			"pbrMetallicRoughness":{
				"baseColorFactor":[
					0.8939096927642822,
					1,
					1,
					1
				],
				"metallicFactor":0,
				"roughnessFactor":0.3954545557498932
			}
		},
		{
			"name":"Bottons_Threads.006",
			"pbrMetallicRoughness":{
				"baseColorFactor":[
					0.7523314952850342,
					1,
					1,
					1
				],
				"metallicFactor":0
			}
		}
	],
	"meshes":[
		{
			"name":"Shirt OBJ.007",
			"primitives":[
				{
					"attributes":{
						"POSITION":0,
						"NORMAL":1,
						"TEXCOORD_0":2
					},
					"indices":3,
					"material":0
				},
				{
					"attributes":{
						"POSITION":4,
						"NORMAL":5,
						"TEXCOORD_0":6
					},
					"indices":7,
					"material":1
				},
				{
					"attributes":{
						"POSITION":8,
						"NORMAL":9,
						"TEXCOORD_0":10
					},
					"indices":11,
					"material":2
				},
				{
					"attributes":{
						"POSITION":12,
						"NORMAL":13,
						"TEXCOORD_0":14
					},
					"indices":15,
					"material":3
				},
				{
					"attributes":{
						"POSITION":16,
						"NORMAL":17,
						"TEXCOORD_0":18
					},
					"indices":19,
					"material":4
				},
				{
					"attributes":{
						"POSITION":20,
						"NORMAL":21,
						"TEXCOORD_0":22
					},
					"indices":23,
					"material":5
				},
				{
					"attributes":{
						"POSITION":24,
						"NORMAL":25,
						"TEXCOORD_0":26
					},
					"indices":27,
					"material":6
				}
			]
		}
	],
	"accessors":[
		{
			"bufferView":0,
			"componentType":5126,
			"count":27384,
			"max":[
				21.34079933166504,
				15.5733003616333,
				-90.5625
			],
			"min":[
				-21.740400314331055,
				-15.614399909973145,
				-168.29530334472656
			],
			"type":"VEC3"
		},
		{
			"bufferView":1,
			"componentType":5126,
			"count":27384,
			"type":"VEC3"
		},
		{
			"bufferView":2,
			"componentType":5126,
			"count":27384,
			"type":"VEC2"
		},
		{
			"bufferView":3,
			"componentType":5123,
			"count":149316,
			"type":"SCALAR"
		},
		{
			"bufferView":4,
			"componentType":5126,
			"count":8468,
			"max":[
				-18.693700790405273,
				6.422900199890137,
				-106.65370178222656
			],
			"min":[
				-57.3557014465332,
				-11.08650016784668,
				-156.91700744628906
			],
			"type":"VEC3"
		},
		{
			"bufferView":5,
			"componentType":5126,
			"count":8468,
			"type":"VEC3"
		},
		{
			"bufferView":6,
			"componentType":5126,
			"count":8468,
			"type":"VEC2"
		},
		{
			"bufferView":7,
			"componentType":5123,
			"count":48648,
			"type":"SCALAR"
		},
		{
			"bufferView":8,
			"componentType":5126,
			"count":8378,
			"max":[
				57.33509826660156,
				6.422999858856201,
				-106.87079620361328
			],
			"min":[
				18.357099533081055,
				-11.020099639892578,
				-156.84120178222656
			],
			"type":"VEC3"
		},
		{
			"bufferView":9,
			"componentType":5126,
			"count":8378,
			"type":"VEC3"
		},
		{
			"bufferView":10,
			"componentType":5126,
			"count":8378,
			"type":"VEC2"
		},
		{
			"bufferView":11,
			"componentType":5123,
			"count":48120,
			"type":"SCALAR"
		},
		{
			"bufferView":12,
			"componentType":5126,
			"count":14614,
			"max":[
				21.715099334716797,
				0.4805999994277954,
				-90.60320281982422
			],
			"min":[
				-22.20009994506836,
				-15.6318998336792,
				-163.95849609375
			],
			"type":"VEC3"
		},
		{
			"bufferView":13,
			"componentType":5126,
			"count":14614,
			"type":"VEC3"
		},
		{
			"bufferView":14,
			"componentType":5126,
			"count":14614,
			"type":"VEC2"
		},
		{
			"bufferView":15,
			"componentType":5123,
			"count":84528,
			"type":"SCALAR"
		},
		{
			"bufferView":16,
			"componentType":5126,
			"count":1648,
			"max":[
				55.9109001159668,
				5.642099857330322,
				-109.6240005493164
			],
			"min":[
				-56.105098724365234,
				-5.797900199890137,
				-120.11090087890625
			],
			"type":"VEC3"
		},
		{
			"bufferView":17,
			"componentType":5126,
			"count":1648,
			"type":"VEC3"
		},
		{
			"bufferView":18,
			"componentType":5126,
			"count":1648,
			"type":"VEC2"
		},
		{
			"bufferView":19,
			"componentType":5123,
			"count":7344,
			"type":"SCALAR"
		},
		{
			"bufferView":20,
			"componentType":5126,
			"count":7247,
			"max":[
				55.11470031738281,
				15.57409954071045,
				-102.44000244140625
			],
			"min":[
				-54.938899993896484,
				-3.7114999294281006,
				-159.2805938720703
			],
			"type":"VEC3"
		},
		{
			"bufferView":21,
			"componentType":5126,
			"count":7247,
			"type":"VEC3"
		},
		{
			"bufferView":22,
			"componentType":5126,
			"count":7247,
			"type":"VEC2"
		},
		{
			"bufferView":23,
			"componentType":5123,
			"count":33642,
			"type":"SCALAR"
		},
		{
			"bufferView":24,
			"componentType":5126,
			"count":9342,
			"max":[
				54.70130157470703,
				15.364299774169922,
				-102.92169952392578
			],
			"min":[
				-54.569000244140625,
				-3.3833999633789062,
				-158.80990600585938
			],
			"type":"VEC3"
		},
		{
			"bufferView":25,
			"componentType":5126,
			"count":9342,
			"type":"VEC3"
		},
		{
			"bufferView":26,
			"componentType":5126,
			"count":9342,
			"type":"VEC2"
		},
		{
			"bufferView":27,
			"componentType":5123,
			"count":46656,
			"type":"SCALAR"
		}
	],
	"bufferViews":[
		{
			"buffer":0,
			"byteLength":328608,
			"byteOffset":0,
			"target":34962
		},
		{
			"buffer":0,
			"byteLength":328608,
			"byteOffset":328608,
			"target":34962
		},
		{
			"buffer":0,
			"byteLength":219072,
			"byteOffset":657216,
			"target":34962
		},
		{
			"buffer":0,
			"byteLength":298632,
			"byteOffset":876288,
			"target":34963
		},
		{
			"buffer":0,
			"byteLength":101616,
			"byteOffset":1174920,
			"target":34962
		},
		{
			"buffer":0,
			"byteLength":101616,
			"byteOffset":1276536,
			"target":34962
		},
		{
			"buffer":0,
			"byteLength":67744,
			"byteOffset":1378152,
			"target":34962
		},
		{
			"buffer":0,
			"byteLength":97296,
			"byteOffset":1445896,
			"target":34963
		},
		{
			"buffer":0,
			"byteLength":100536,
			"byteOffset":1543192,
			"target":34962
		},
		{
			"buffer":0,
			"byteLength":100536,
			"byteOffset":1643728,
			"target":34962
		},
		{
			"buffer":0,
			"byteLength":67024,
			"byteOffset":1744264,
			"target":34962
		},
		{
			"buffer":0,
			"byteLength":96240,
			"byteOffset":1811288,
			"target":34963
		},
		{
			"buffer":0,
			"byteLength":175368,
			"byteOffset":1907528,
			"target":34962
		},
		{
			"buffer":0,
			"byteLength":175368,
			"byteOffset":2082896,
			"target":34962
		},
		{
			"buffer":0,
			"byteLength":116912,
			"byteOffset":2258264,
			"target":34962
		},
		{
			"buffer":0,
			"byteLength":169056,
			"byteOffset":2375176,
			"target":34963
		},
		{
			"buffer":0,
			"byteLength":19776,
			"byteOffset":2544232,
			"target":34962
		},
		{
			"buffer":0,
			"byteLength":19776,
			"byteOffset":2564008,
			"target":34962
		},
		{
			"buffer":0,
			"byteLength":13184,
			"byteOffset":2583784,
			"target":34962
		},
		{
			"buffer":0,
			"byteLength":14688,
			"byteOffset":2596968,
			"target":34963
		},
		{
			"buffer":0,
			"byteLength":86964,
			"byteOffset":2611656,
			"target":34962
		},
		{
			"buffer":0,
			"byteLength":86964,
			"byteOffset":2698620,
			"target":34962
		},
		{
			"buffer":0,
			"byteLength":57976,
			"byteOffset":2785584,
			"target":34962
		},
		{
			"buffer":0,
			"byteLength":67284,
			"byteOffset":2843560,
			"target":34963
		},
		{
			"buffer":0,
			"byteLength":112104,
			"byteOffset":2910844,
			"target":34962
		},
		{
			"buffer":0,
			"byteLength":112104,
			"byteOffset":3022948,
			"target":34962
		},
		{
			"buffer":0,
			"byteLength":74736,
			"byteOffset":3135052,
			"target":34962
		},
		{
			"buffer":0,
			"byteLength":93312,
			"byteOffset":3209788,
			"target":34963
		}
	],
	"buffers":[
		{
			"byteLength":3303100,
			"uri":"Shirt%20Long%20Sleeves.bin"
		}
	]
}
